<svg width="102" height="109" viewBox="0 0 102 109" fill="none" xmlns="http://www.w3.org/2000/svg">
<path d="M76.8311 -44.4971C97.0171 -44.6724 116.465 -36.9137 130.986 -22.8916C145.009 -8.36987 152.768 11.0782 152.593 31.2646C152.417 51.4537 144.319 70.7666 130.043 85.043C115.767 99.3193 96.4537 107.417 76.2646 107.593C56.0782 107.768 36.6301 100.009 22.1084 85.9863C8.08626 71.4647 0.327553 52.0171 0.50293 31.8311C0.678368 11.6419 8.77631 -7.67084 23.0527 -21.9473C37.3292 -36.2237 56.6419 -44.3216 76.8311 -44.4971ZM37.8125 80.5801L38.2715 80.9268C40.3788 82.5187 42.5654 84.003 44.8232 85.373L45.1621 85.5781L45.4395 85.2949L49.1152 81.5479L53.9131 86.3457L52.0078 88.3174L51.502 88.8418L52.1729 89.126C63.6363 93.9847 76.2898 95.3088 88.5107 92.9287C100.732 90.5485 111.964 84.5725 120.767 75.7666V75.7656C129.559 66.9546 135.521 55.7188 137.887 43.498C140.253 31.2772 138.916 18.628 134.048 7.17188L133.758 6.49023L133.234 7.01367L131.34 8.90723L126.548 4.11523L130.295 0.439453L130.578 0.162109L130.373 -0.176758C129.003 -2.43455 127.519 -4.62125 125.927 -6.72852L125.58 -7.1875L37.8125 80.5801ZM75.8389 64.4111L65.6055 74.7168L60.8311 70.2783L71.0537 59.6934L75.8389 64.4111ZM100.923 -26.0303C89.4592 -30.8892 76.8052 -32.2132 64.584 -29.833C52.3629 -27.4528 41.1313 -21.4767 32.3291 -12.6709C23.5363 -3.85988 17.5742 7.37684 15.208 19.5977C12.8419 31.8183 14.1793 44.4669 19.0479 55.9229L19.3369 56.6055L19.8613 56.0811L21.7549 54.1865L26.5469 58.9785L22.7998 62.6553L22.5176 62.9336L22.7227 63.2725C24.0927 65.5302 25.577 67.717 27.1689 69.8242L27.5146 70.2822L115.282 -17.4854L114.824 -17.8311C112.717 -19.423 110.53 -20.9073 108.272 -22.2773L107.934 -22.4824L107.655 -22.2002L103.979 -18.4531L99.1807 -23.252L101.087 -25.2227L101.594 -25.7461L100.923 -26.0303ZM97.7705 42.4775L87.4775 52.7705L82.7539 47.9795L92.9795 37.7539L97.7705 42.4775ZM48.4072 37.0469L38.1846 47.2705L33.3906 42.4766L43.6836 32.2549L48.4072 37.0469ZM120.085 20.6123L109.417 30.8447L104.693 26.0537L115.291 15.8184L120.085 20.6123ZM70.3398 15.1143L60.1143 25.3398L55.3242 20.6172L65.6172 10.3242L70.3398 15.1143ZM92.2705 -6.81543L82.0469 3.40723L77.2549 -1.31641L87.4766 -11.6094L92.2705 -6.81543Z" fill="#3DC573" stroke="black"/>
</svg>
