<svg width="108" height="116" viewBox="0 0 108 116" fill="none" xmlns="http://www.w3.org/2000/svg">
<mask id="path-1-inside-1_1_140" fill="white">
<path fill-rule="evenodd" clip-rule="evenodd" d="M11.873 26.3063L14.942 24.2757C19.5455 21.23 22.5912 19.2073 24.7457 17.4015C26.7917 15.6888 27.5668 14.5418 27.9698 13.4723C28.3728 12.4028 28.5587 11.031 28.1635 8.38825C27.745 5.59825 26.8073 2.072 25.3813 -3.26775L24.087 -8.1115C17.0979 2.10391 12.8886 13.9628 11.873 26.2985M33.1855 -18.9615L33.3715 -18.388L36.6963 -5.9725C38.0138 -1.028 39.1375 3.14925 39.6567 6.66775C39.928 8.4735 40.0675 10.2328 39.9823 11.992L59.3573 20.1527C59.7969 19.7118 60.2628 19.2977 60.7522 18.9128L74.9967 8.03175C75.7614 7.44791 76.5674 6.95708 77.4147 6.55925V-14.4432C75.7772 -15.0243 74.1993 -15.7614 72.7027 -16.6442C69.6182 -18.419 66.1385 -20.9843 62.031 -24.0223L51.3515 -31.8962C44.6613 -28.5509 38.5326 -24.1844 33.1855 -18.9537M64.2397 -36.8252L68.6728 -33.5548C73.1135 -30.2765 76.0585 -28.1143 78.4997 -26.7115C80.8092 -25.3863 82.1423 -25.053 83.2892 -25.0375C84.4285 -25.0298 85.7693 -25.332 88.1098 -26.6108C90.5743 -27.9593 93.5658 -30.0595 98.0762 -33.237L102.897 -36.6315C96.5003 -38.4591 89.8796 -39.3826 83.2272 -39.375C76.8122 -39.3831 70.4254 -38.5255 64.2397 -36.8252ZM115.746 -31.5708C115.514 -31.349 115.268 -31.142 115.01 -30.9508L104.517 -23.5573C100.331 -20.6123 96.8052 -18.1168 93.6898 -16.4118C92.163 -15.5748 90.6208 -14.8618 89.0397 -14.3425V6.55925C89.8819 6.96225 90.6853 7.45567 91.45 8.0395L105.687 18.9282C106.198 19.3158 106.674 19.7343 107.113 20.1838L126.953 11.9688C126.875 10.225 127.015 8.4735 127.286 6.6755C127.805 3.157 128.929 -1.02025 130.246 -5.957L133.571 -18.3725L133.633 -18.5972C128.373 -23.8154 122.34 -28.1913 115.746 -31.5708ZM142.716 -7.5845L141.562 -3.26775C140.136 2.072 139.198 5.606 138.779 8.38825C138.392 11.0233 138.57 12.4028 138.973 13.4723C139.376 14.5418 140.151 15.6888 142.197 17.4015C144.352 19.2073 147.39 21.23 152.001 24.2757L154.543 25.9575C153.497 13.9573 149.428 2.41766 142.716 -7.5845ZM166.393 35.428C166.429 34.3947 166.447 33.3562 166.447 32.3125C166.447 -13.6915 129.193 -51 83.2272 -51C37.2542 -51 0 -13.6915 0 32.3125C0 78.3165 37.2542 115.625 83.2272 115.625C126.821 115.625 162.572 82.0675 166.152 39.365C166.686 38.1199 166.776 36.7273 166.393 35.428ZM154.426 39.8223L145.312 33.785C141.05 30.9717 137.438 28.5925 134.718 26.2985C133.433 25.2391 132.245 24.0668 131.169 22.7955L110.918 31.181C110.815 32.0309 110.641 32.8708 110.399 33.692L104.811 51.8037C104.615 52.4393 104.377 53.0489 104.098 53.6328L115.475 66.7922C117.219 66.211 119.04 65.8623 120.931 65.6453C124.465 65.2423 128.79 65.2423 133.897 65.2423H146.824C150.924 57.3163 153.501 48.691 154.419 39.8145M139.299 76.8673H134.215C128.689 76.8673 125.038 76.875 122.249 77.1927C119.606 77.5027 118.327 78.022 117.405 78.6963C116.475 79.3627 115.568 80.4012 114.444 82.827C113.258 85.3845 112.096 88.8488 110.352 94.0878L108.601 99.3577C120.668 94.7587 131.271 86.9888 139.291 76.8673M95.1157 103L99.417 90.112C101.029 85.2527 102.401 81.153 103.896 77.929C104.563 76.4772 105.325 75.1132 106.183 73.837L95.0693 60.972C94.0256 61.2355 92.9509 61.3672 91.8452 61.3672H74.5628C73.5294 61.3672 72.5271 61.2562 71.5557 61.034L61.69 73.6355C62.6097 74.9633 63.4182 76.3971 64.1157 77.9367C65.6192 81.1607 66.9833 85.2605 68.603 90.1198L72.9818 103.271C80.3395 104.327 87.8162 104.238 95.1468 103.008M59.6517 100.024L57.6833 94.0955C55.9317 88.8565 54.7692 85.3845 53.5835 82.8347C52.4597 80.4167 51.553 79.3705 50.6307 78.704C49.7007 78.0298 48.4297 77.5027 45.787 77.2005C42.997 76.8905 39.339 76.875 33.821 76.875H27.125C35.5553 87.5102 46.8283 95.5371 59.6362 100.024M19.7238 65.4593C20.2345 65.3231 20.7606 65.2527 21.2892 65.25H34.1232C39.2383 65.25 43.555 65.25 47.089 65.653C48.9103 65.8623 50.654 66.1878 52.328 66.7302L62.434 53.8498C62.1149 53.1904 61.843 52.5093 61.6203 51.8115L56.0325 33.6998C55.7861 32.8686 55.6098 32.0183 55.5055 31.1577L35.743 22.8265C34.671 24.0917 33.4883 25.2588 32.209 26.314C29.481 28.5925 25.8773 30.9717 21.6147 33.7927L12.0357 40.1245C13.02 49.192 15.6782 57.7402 19.716 65.467M83.204 16.8822C82.783 16.8867 82.3749 17.0282 82.0415 17.2852L67.8125 28.1585C67.4968 28.3995 67.2628 28.7318 67.1422 29.1102C67.0216 29.4886 67.0202 29.895 67.1383 30.2743L72.7337 48.386C72.8555 48.7789 73.0991 49.1228 73.4293 49.368C73.7595 49.6133 74.1592 49.747 74.5705 49.75H91.853C92.2656 49.7487 92.6671 49.6157 92.9988 49.3703C93.3306 49.125 93.5754 48.7801 93.6975 48.386L99.293 30.2743C99.411 29.895 99.4097 29.4886 99.289 29.1102C99.1684 28.7318 98.9345 28.3995 98.6188 28.1585L84.382 17.2698C84.0466 17.0182 83.6387 16.8822 83.2195 16.8822"/>
</mask>
<path d="M14.942 24.2757L14.3902 23.4418L14.942 24.2757ZM24.7457 17.4015L24.1039 16.6347L24.1034 16.6351L24.7457 17.4015ZM28.1635 8.38825L29.1525 8.24034L29.1524 8.23991L28.1635 8.38825ZM25.3813 -3.26775L26.3474 -3.52576L26.3474 -3.52589L25.3813 -3.26775ZM24.087 -8.1115L25.0531 -8.36964L24.4911 -10.4731L23.2617 -8.67616L24.087 -8.1115ZM33.3715 -18.388L34.3375 -18.6467L34.3307 -18.6718L34.3227 -18.6965L33.3715 -18.388ZM36.6963 -5.9725L37.6625 -6.22998L37.6622 -6.23117L36.6963 -5.9725ZM39.6567 6.66775L38.6675 6.81375L38.6678 6.8163L39.6567 6.66775ZM39.9823 11.992L38.9834 11.9436L38.9496 12.6421L39.5941 12.9136L39.9823 11.992ZM59.3573 20.1527L58.9691 21.0743L59.5898 21.3358L60.0654 20.8588L59.3573 20.1527ZM60.7522 18.9128L60.1452 18.118L60.1341 18.1267L60.7522 18.9128ZM74.9967 8.03175L74.3899 7.23693L74.3897 7.23707L74.9967 8.03175ZM77.4147 6.55925L77.8398 7.46444L78.4147 7.19447V6.55925H77.4147ZM77.4147 -14.4432H78.4147V-15.1495L77.7492 -15.3857L77.4147 -14.4432ZM72.7027 -16.6442L73.2109 -17.5056L73.2015 -17.511L72.7027 -16.6442ZM62.031 -24.0223L62.6256 -24.8262L62.6244 -24.8271L62.031 -24.0223ZM51.3515 -31.8962L51.9449 -32.7011L51.452 -33.0646L50.9043 -32.7907L51.3515 -31.8962ZM64.2397 -36.8252L63.9747 -37.7895L61.9884 -37.2435L63.6461 -36.0205L64.2397 -36.8252ZM68.6728 -33.5548L69.2667 -34.3593L69.2664 -34.3595L68.6728 -33.5548ZM78.4997 -26.7115L78.0015 -25.8444L78.002 -25.8442L78.4997 -26.7115ZM83.2892 -25.0375L83.2757 -24.0376L83.2824 -24.0375L83.2892 -25.0375ZM88.1098 -26.6108L88.5892 -25.7332L88.5898 -25.7335L88.1098 -26.6108ZM98.0762 -33.237L97.5005 -34.0546L97.5003 -34.0545L98.0762 -33.237ZM102.897 -36.6315L103.473 -35.8139L105.183 -37.0183L103.171 -37.593L102.897 -36.6315ZM83.2272 -39.375L83.226 -38.375L83.2284 -38.375L83.2272 -39.375ZM115.746 -31.5708L116.202 -32.4607L115.57 -32.7848L115.056 -32.2942L115.746 -31.5708ZM115.01 -30.9508L115.586 -30.1333L115.596 -30.1402L115.605 -30.1473L115.01 -30.9508ZM104.517 -23.5573L105.092 -22.7394L105.092 -22.7398L104.517 -23.5573ZM93.6898 -16.4118L93.2097 -17.289L93.209 -17.2886L93.6898 -16.4118ZM89.0397 -14.3425L88.7277 -15.2926L88.0397 -15.0666V-14.3425H89.0397ZM89.0397 6.55925H88.0397V7.18932L88.6081 7.46129L89.0397 6.55925ZM91.45 8.0395L92.0575 7.24519L92.0569 7.24469L91.45 8.0395ZM105.687 18.9282L105.079 19.7226L105.083 19.7253L105.687 18.9282ZM107.113 20.1838L106.397 20.8826L106.87 21.3665L107.495 21.1077L107.113 20.1838ZM126.953 11.9688L127.335 12.8927L127.983 12.6245L127.952 11.9244L126.953 11.9688ZM127.286 6.6755L128.275 6.82468L128.275 6.8215L127.286 6.6755ZM130.246 -5.957L129.281 -6.21568L129.28 -6.21485L130.246 -5.957ZM133.571 -18.3725L132.607 -18.6384L132.605 -18.6312L133.571 -18.3725ZM133.633 -18.5972L134.597 -18.3313L134.753 -18.8952L134.338 -19.3072L133.633 -18.5972ZM142.716 -7.5845L143.547 -8.14173L142.319 -9.97051L141.75 -7.84292L142.716 -7.5845ZM141.562 -3.26775L140.595 -3.52617L140.595 -3.52576L141.562 -3.26775ZM138.779 8.38825L137.79 8.23951L137.79 8.24276L138.779 8.38825ZM142.197 17.4015L142.839 16.6351L142.839 16.6347L142.197 17.4015ZM152.001 24.2757L152.553 23.4417L152.552 23.4413L152.001 24.2757ZM154.543 25.9575L153.991 26.7915L155.719 27.9346L155.539 25.8707L154.543 25.9575ZM166.393 35.428L165.393 35.393L165.387 35.5554L165.433 35.7112L166.393 35.428ZM83.2272 -51V-50V-51ZM166.152 39.365L165.233 38.9709L165.169 39.1199L165.156 39.2814L166.152 39.365ZM145.312 33.785L145.865 32.9513L145.863 32.9504L145.312 33.785ZM134.718 26.2985L135.363 25.534L135.354 25.5268L134.718 26.2985ZM131.169 22.7955L131.932 22.1494L131.46 21.5924L130.786 21.8716L131.169 22.7955ZM110.918 31.181L110.535 30.2571L109.996 30.4805L109.925 31.0602L110.918 31.181ZM110.399 33.692L111.354 33.9868L111.358 33.9748L110.399 33.692ZM104.811 51.8037L105.766 52.0989L105.767 52.0986L104.811 51.8037ZM104.098 53.6328L103.196 53.2016L102.914 53.7919L103.342 54.2868L104.098 53.6328ZM115.475 66.7922L114.719 67.4463L115.156 67.9526L115.791 67.7409L115.475 66.7922ZM120.931 65.6453L120.818 64.6517L120.817 64.6518L120.931 65.6453ZM146.824 65.2423V66.2423H147.432L147.712 65.7018L146.824 65.2423ZM122.249 77.1927L122.135 76.1992L122.132 76.1996L122.249 77.1927ZM117.405 78.6963L117.987 79.5091L117.995 79.5035L117.405 78.6963ZM114.444 82.827L115.351 83.2476L115.352 83.2473L114.444 82.827ZM110.352 94.0878L109.403 93.7719L109.403 93.7724L110.352 94.0878ZM108.601 99.3577L107.652 99.0424L106.987 101.043L108.957 100.292L108.601 99.3577ZM99.417 90.112L100.366 90.4286L100.366 90.4269L99.417 90.112ZM103.896 77.929L104.804 78.3499L104.805 78.3462L103.896 77.929ZM106.183 73.837L107.013 74.3948L107.439 73.7611L106.939 73.1833L106.183 73.837ZM95.0693 60.972L95.826 60.3183L95.4227 59.8514L94.8245 60.0024L95.0693 60.972ZM71.5557 61.034L71.7787 60.0592L71.1598 59.9176L70.7684 60.4175L71.5557 61.034ZM61.69 73.6355L60.9026 73.0191L60.4484 73.5992L60.8679 74.2049L61.69 73.6355ZM64.1157 77.9367L63.2048 78.3494L63.2095 78.3594L64.1157 77.9367ZM68.603 90.1198L69.5518 89.8038L69.5517 89.8035L68.603 90.1198ZM72.9818 103.271L72.033 103.587L72.2281 104.174L72.8397 104.261L72.9818 103.271ZM57.6833 94.0955L58.6323 93.7804L58.6317 93.7784L57.6833 94.0955ZM53.5835 82.8347L52.6766 83.2562L52.6768 83.2564L53.5835 82.8347ZM50.6307 78.704L50.0438 79.5136L50.045 79.5145L50.6307 78.704ZM45.787 77.2005L45.9006 76.207L45.8974 76.2066L45.787 77.2005ZM27.125 76.875V75.875H25.0563L26.3413 77.4962L27.125 76.875ZM21.2892 65.25V64.25L21.2841 64.25L21.2892 65.25ZM47.089 65.653L47.2031 64.6595L47.2023 64.6594L47.089 65.653ZM52.328 66.7302L52.0197 67.6815L52.6838 67.8968L53.1147 67.3475L52.328 66.7302ZM62.434 53.8498L63.2207 54.467L63.606 53.976L63.3341 53.4142L62.434 53.8498ZM61.6203 51.8115L60.6646 52.1063L60.6676 52.1156L61.6203 51.8115ZM56.0325 33.6998L55.0737 33.9841L55.0769 33.9946L56.0325 33.6998ZM55.5055 31.1577L56.4982 31.0375L56.4285 30.4616L55.894 30.2363L55.5055 31.1577ZM35.743 22.8265L36.1315 21.905L35.4548 21.6198L34.98 22.18L35.743 22.8265ZM32.209 26.314L31.5727 25.5425L31.568 25.5465L32.209 26.314ZM21.6147 33.7927L22.1662 34.627L22.1666 34.6267L21.6147 33.7927ZM12.0357 40.1245L11.4843 39.2903L10.9758 39.6264L11.0416 40.2324L12.0357 40.1245ZM82.0415 17.2852L82.6487 18.0798L82.6521 18.0772L82.0415 17.2852ZM67.8125 28.1585L68.4193 28.9533L68.4197 28.9531L67.8125 28.1585ZM67.1383 30.2743L68.0937 29.9791L68.0931 29.9771L67.1383 30.2743ZM72.7337 48.386L71.7783 48.6812L71.7786 48.682L72.7337 48.386ZM74.5705 49.75L74.5633 50.75H74.5705V49.75ZM91.853 49.75V50.75L91.8562 50.75L91.853 49.75ZM93.6975 48.386L94.6527 48.682L94.6529 48.6812L93.6975 48.386ZM99.293 30.2743L98.3382 29.9771L98.3376 29.9791L99.293 30.2743ZM98.6188 28.1585L98.0112 28.9528L98.0119 28.9533L98.6188 28.1585ZM84.382 17.2698L84.9895 16.4754L84.982 16.4697L84.382 17.2698ZM11.873 26.3063L12.4248 27.1402L15.4938 25.1097L14.942 24.2757L14.3902 23.4418L11.3212 25.4723L11.873 26.3063ZM14.942 24.2757L15.4938 25.1097C20.0769 22.0775 23.1798 20.0187 25.3881 18.1679L24.7457 17.4015L24.1034 16.6351C22.0027 18.3958 19.0141 20.3825 14.3902 23.4418L14.942 24.2757ZM24.7457 17.4015L25.3876 18.1683C27.5076 16.3937 28.4198 15.1139 28.9055 13.8249L27.9698 13.4723L27.034 13.1196C26.7137 13.9696 26.0759 14.9838 24.1039 16.6347L24.7457 17.4015ZM27.9698 13.4723L28.9055 13.8249C29.3895 12.5405 29.5625 10.9816 29.1525 8.24034L28.1635 8.38825L27.1745 8.53617C27.555 11.0804 27.356 12.265 27.034 13.1196L27.9698 13.4723ZM28.1635 8.38825L29.1524 8.23991C28.7236 5.38098 27.767 1.7901 26.3474 -3.52576L25.3813 -3.26775L24.4151 -3.00974C25.8475 2.3539 26.7664 5.81552 27.1746 8.53659L28.1635 8.38825ZM25.3813 -3.26775L26.3474 -3.52589L25.0531 -8.36964L24.087 -8.1115L23.1209 -7.85336L24.4151 -3.00961L25.3813 -3.26775ZM24.087 -8.1115L23.2617 -8.67616C16.1746 1.68253 11.9062 13.7077 10.8764 26.2164L11.873 26.2985L12.8696 26.3806C13.871 14.2178 18.0213 2.5253 24.9123 -7.54684L24.087 -8.1115ZM33.1855 -18.9615L32.2343 -18.653L32.4203 -18.0795L33.3715 -18.388L34.3227 -18.6965L34.1367 -19.27L33.1855 -18.9615ZM33.3715 -18.388L32.4055 -18.1293L35.7303 -5.71383L36.6963 -5.9725L37.6622 -6.23117L34.3375 -18.6467L33.3715 -18.388ZM36.6963 -5.9725L35.73 -5.71503C37.0533 -0.748653 38.1585 3.36474 38.6675 6.81375L39.6567 6.66775L40.646 6.52176C40.1165 2.93376 38.9742 -1.30735 37.6625 -6.22997L36.6963 -5.9725ZM39.6567 6.66775L38.6678 6.8163C38.9326 8.57859 39.0646 10.269 38.9834 11.9436L39.9823 11.992L40.9811 12.0404C41.0704 10.1965 40.9234 8.36841 40.6457 6.5192L39.6567 6.66775ZM39.9823 11.992L39.5941 12.9136L58.9691 21.0743L59.3573 20.1527L59.7454 19.2312L40.3704 11.0704L39.9823 11.992ZM59.3573 20.1527L60.0654 20.8588C60.4767 20.4463 60.9125 20.0589 61.3704 19.6988L60.7522 18.9128L60.1341 18.1267C59.613 18.5365 59.1171 18.9773 58.6491 19.4467L59.3573 20.1527ZM60.7522 18.9128L61.3593 19.7074L75.6038 8.82642L74.9967 8.03175L74.3897 7.23707L60.1452 18.1181L60.7522 18.9128ZM74.9967 8.03175L75.6036 8.82656C76.3133 8.28468 77.0585 7.83123 77.8398 7.46444L77.4147 6.55925L76.9898 5.65406C76.0763 6.08294 75.2095 6.61114 74.3899 7.23693L74.9967 8.03175ZM77.4147 6.55925H78.4147V-14.4432H77.4147H76.4147V6.55925H77.4147ZM77.4147 -14.4432L77.7492 -15.3857C76.172 -15.9453 74.6522 -16.6552 73.2109 -17.5055L72.7027 -16.6442L72.1946 -15.783C73.7463 -14.8675 75.3824 -14.1033 77.0803 -13.5008L77.4147 -14.4432ZM72.7027 -16.6442L73.2015 -17.511C70.1773 -19.251 66.748 -21.7772 62.6256 -24.8262L62.031 -24.0223L61.4364 -23.2183C65.529 -20.1913 69.0592 -17.587 72.204 -15.7775L72.7027 -16.6442ZM62.031 -24.0223L62.6244 -24.8271L51.9449 -32.7011L51.3515 -31.8962L50.7581 -31.0914L61.4376 -23.2174L62.031 -24.0223ZM51.3515 -31.8962L50.9043 -32.7907C44.1212 -29.3989 37.9075 -24.9718 32.4862 -19.6686L33.1855 -18.9537L33.8848 -18.2389C39.1576 -23.397 45.2013 -27.7029 51.7987 -31.0018L51.3515 -31.8962ZM64.2397 -36.8252L63.6461 -36.0205L68.0791 -32.75L68.6728 -33.5548L69.2664 -34.3595L64.8334 -37.63L64.2397 -36.8252ZM68.6728 -33.5548L68.0788 -32.7502C72.5005 -29.4861 75.4989 -27.2825 78.0015 -25.8444L78.4997 -26.7115L78.998 -27.5786C76.6181 -28.946 73.7265 -31.0669 69.2667 -34.3593L68.6728 -33.5548ZM78.4997 -26.7115L78.002 -25.8442C80.3942 -24.4715 81.897 -24.0562 83.2757 -24.0376L83.2892 -25.0375L83.3028 -26.0374C82.3875 -26.0498 81.2243 -26.301 78.9975 -27.5788L78.4997 -26.7115ZM83.2892 -25.0375L83.2824 -24.0375C84.6525 -24.0282 86.1643 -24.4083 88.5892 -25.7332L88.1098 -26.6108L87.6303 -27.4883C85.3742 -26.2557 84.2045 -26.0313 83.2961 -26.0375L83.2892 -25.0375ZM88.1098 -26.6108L88.5898 -25.7335C91.1159 -27.1157 94.1617 -29.2561 98.6522 -32.4195L98.0762 -33.237L97.5003 -34.0545C92.9698 -30.8629 90.0326 -28.8028 87.6297 -27.488L88.1098 -26.6108ZM98.0762 -33.237L98.652 -32.4194L103.473 -35.8139L102.897 -36.6315L102.321 -37.4491L97.5005 -34.0546L98.0762 -33.237ZM102.897 -36.6315L103.171 -37.593C96.6854 -39.4463 89.9718 -40.3827 83.2261 -40.375L83.2272 -39.375L83.2284 -38.375C89.7875 -38.3825 96.3153 -37.472 102.622 -35.67L102.897 -36.6315ZM83.2272 -39.375L83.2285 -40.375C76.7235 -40.3832 70.2471 -39.5136 63.9747 -37.7895L64.2397 -36.8252L64.5048 -35.861C70.6037 -37.5374 76.9009 -38.383 83.226 -38.375L83.2272 -39.375ZM115.746 -31.5708L115.056 -32.2942C114.853 -32.1011 114.639 -31.9207 114.415 -31.7542L115.01 -30.9508L115.605 -30.1473C115.897 -30.3632 116.174 -30.597 116.437 -30.8473L115.746 -31.5708ZM115.01 -30.9508L114.434 -31.7682L103.941 -24.3747L104.517 -23.5573L105.092 -22.7398L115.586 -30.1333L115.01 -30.9508ZM104.517 -23.5573L103.941 -24.3751C99.7374 -21.417 96.2643 -18.9606 93.2097 -17.289L93.6898 -16.4118L94.1698 -15.5345C97.3462 -17.2729 100.926 -19.8075 105.092 -22.7394L104.517 -23.5573ZM93.6898 -16.4118L93.209 -17.2886C91.72 -16.4723 90.2351 -15.7877 88.7277 -15.2926L89.0397 -14.3425L89.3518 -13.3924C91.0064 -13.9359 92.606 -14.6772 94.1705 -15.5349L93.6898 -16.4118ZM89.0397 -14.3425H88.0397V6.55925H89.0397H90.0397V-14.3425H89.0397ZM89.0397 6.55925L88.6081 7.46129C89.3865 7.83377 90.1314 8.29087 90.8431 8.83432L91.45 8.0395L92.0569 7.24469C91.2393 6.62046 90.3774 6.09073 89.4714 5.65721L89.0397 6.55925ZM91.45 8.0395L90.8425 8.83381L105.079 19.7226L105.687 18.9282L106.294 18.1339L92.0575 7.24519L91.45 8.0395ZM105.687 18.9282L105.083 19.7253C105.556 20.0835 105.994 20.4693 106.397 20.8826L107.113 20.1838L107.828 19.4849C107.353 18.9992 106.841 18.548 106.291 18.1312L105.687 18.9282ZM107.113 20.1838L107.495 21.1077L127.335 12.8927L126.953 11.9688L126.57 11.0448L106.73 19.2598L107.113 20.1838ZM126.953 11.9688L127.952 11.9244C127.878 10.2631 128.01 8.57904 128.275 6.82468L127.286 6.6755L126.297 6.52633C126.019 8.36797 125.873 10.1869 125.954 12.0131L126.953 11.9688ZM127.286 6.6755L128.275 6.8215C128.784 3.37262 129.889 -0.740887 131.213 -5.69915L130.246 -5.957L129.28 -6.21485C127.969 -1.29962 126.826 2.94138 126.297 6.52951L127.286 6.6755ZM130.246 -5.957L131.212 -5.69833L134.537 -18.1138L133.571 -18.3725L132.605 -18.6312L129.281 -6.21568L130.246 -5.957ZM133.571 -18.3725L134.535 -18.1066L134.597 -18.3313L133.633 -18.5972L132.669 -18.8632L132.607 -18.6384L133.571 -18.3725ZM133.633 -18.5972L134.338 -19.3072C129.004 -24.5978 122.888 -29.0344 116.202 -32.4607L115.746 -31.5708L115.29 -30.6808C121.792 -27.3483 127.742 -23.0331 132.929 -17.8873L133.633 -18.5972ZM142.716 -7.5845L141.75 -7.84292L140.595 -3.52617L141.562 -3.26775L142.528 -3.00933L143.682 -7.32608L142.716 -7.5845ZM141.562 -3.26775L140.595 -3.52576C139.176 1.79059 138.219 5.38868 137.79 8.23951L138.779 8.38825L139.768 8.53699C140.176 5.82332 141.095 2.35341 142.528 -3.00974L141.562 -3.26775ZM138.779 8.38825L137.79 8.24276C137.389 10.9715 137.553 12.5387 138.037 13.8249L138.973 13.4723L139.909 13.1196C139.587 12.2668 139.395 11.075 139.769 8.53374L138.779 8.38825ZM138.973 13.4723L138.037 13.8249C138.523 15.1139 139.435 16.3937 141.555 18.1683L142.197 17.4015L142.839 16.6347C140.867 14.9838 140.229 13.9696 139.909 13.1196L138.973 13.4723ZM142.197 17.4015L141.555 18.1679C143.763 20.0188 146.857 22.0769 151.45 25.1102L152.001 24.2757L152.552 23.4413C147.922 20.3831 144.94 18.3957 142.839 16.6351L142.197 17.4015ZM152.001 24.2757L151.449 25.1097L153.991 26.7915L154.543 25.9575L155.095 25.1235L152.553 23.4417L152.001 24.2757ZM154.543 25.9575L155.539 25.8707C154.479 13.7022 150.353 2.00072 143.547 -8.14173L142.716 -7.5845L141.886 -7.02726C148.504 2.83461 152.516 14.2124 153.547 26.0443L154.543 25.9575ZM166.393 35.428L167.392 35.463C167.428 34.4179 167.447 33.3677 167.447 32.3125H166.447H165.447C165.447 33.3446 165.429 34.3715 165.393 35.393L166.393 35.428ZM166.447 32.3125H167.447C167.447 -14.2426 129.746 -52 83.2272 -52V-51V-50C128.639 -50 165.447 -13.1404 165.447 32.3125H166.447ZM83.2272 -51V-52C36.7009 -52 -1 -14.2427 -1 32.3125H0H1C1 -13.1403 37.8076 -50 83.2272 -50V-51ZM0 32.3125H-1C-1 78.8677 36.7009 116.625 83.2272 116.625V115.625V114.625C37.8076 114.625 1 77.7653 1 32.3125H0ZM83.2272 115.625V116.625C127.346 116.625 163.525 82.6636 167.149 39.4486L166.152 39.365L165.156 39.2814C161.618 81.4714 126.296 114.625 83.2272 114.625V115.625ZM166.152 39.365L167.071 39.7591C167.695 38.3036 167.802 36.6716 167.352 35.1448L166.393 35.428L165.433 35.7112C165.75 36.7831 165.677 37.9362 165.233 38.9709L166.152 39.365ZM154.426 39.8223L154.979 38.9886L145.865 32.9513L145.312 33.785L144.76 34.6187L153.874 40.6559L154.426 39.8223ZM145.312 33.785L145.863 32.9504C141.583 30.1253 138.028 27.7817 135.363 25.534L134.718 26.2985L134.074 27.063C136.849 29.4033 140.517 31.8182 144.762 34.6196L145.312 33.785ZM134.718 26.2985L135.354 25.5268C134.115 24.5054 132.97 23.3751 131.932 22.1494L131.169 22.7955L130.406 23.4416C131.52 24.7585 132.751 25.9728 134.082 27.0702L134.718 26.2985ZM131.169 22.7955L130.786 21.8716L110.535 30.2571L110.918 31.181L111.301 32.1049L131.551 23.7194L131.169 22.7955ZM110.918 31.181L109.925 31.0602C109.829 31.8553 109.666 32.641 109.44 33.4092L110.399 33.692L111.358 33.9748C111.616 33.1006 111.801 32.2066 111.911 31.3018L110.918 31.181ZM110.399 33.692L109.443 33.3972L103.855 51.5089L104.811 51.8037L105.767 52.0986L111.354 33.9868L110.399 33.692ZM104.811 51.8037L103.856 51.5086C103.673 52.0988 103.453 52.6629 103.196 53.2016L104.098 53.6328L105 54.0639C105.301 53.4349 105.556 52.7797 105.766 52.0989L104.811 51.8037ZM104.098 53.6328L103.342 54.2868L114.719 67.4463L115.475 66.7922L116.231 66.1382L104.854 52.9787L104.098 53.6328ZM115.475 66.7922L115.791 67.7409C117.451 67.1876 119.201 66.8503 121.045 66.6387L120.931 65.6453L120.817 64.6518C118.879 64.8742 116.986 65.2344 115.159 65.8436L115.475 66.7922ZM120.931 65.6453L121.044 66.6388C124.509 66.2437 128.77 66.2423 133.897 66.2423V65.2423V64.2423C128.809 64.2423 124.421 64.2408 120.818 64.6517L120.931 65.6453ZM133.897 65.2423V66.2423H146.824V65.2423V64.2423H133.897V65.2423ZM146.824 65.2423L147.712 65.7018C151.87 57.6647 154.482 48.9184 155.413 39.9174L154.419 39.8145L153.424 39.7116C152.519 48.4637 149.979 56.968 145.936 64.7827L146.824 65.2423ZM139.299 76.8673V75.8673H134.215V76.8673V77.8672H139.299V76.8673ZM134.215 76.8673V75.8673C128.713 75.8673 124.995 75.8735 122.135 76.1992L122.249 77.1927L122.362 78.1863C125.082 77.8765 128.665 77.8672 134.215 77.8672V76.8673ZM122.249 77.1927L122.132 76.1996C119.401 76.5199 117.931 77.0729 116.815 77.889L117.405 78.6963L117.995 79.5035C118.723 78.9711 119.81 78.4856 122.365 78.1859L122.249 77.1927ZM117.405 78.6963L116.822 77.8834C115.702 78.6863 114.702 79.8913 113.537 82.4066L114.444 82.827L115.352 83.2473C116.434 80.9111 117.247 80.0392 117.987 79.5091L117.405 78.6963ZM114.444 82.827L113.537 82.4064C112.322 85.0272 111.14 88.5553 109.403 93.7719L110.352 94.0878L111.301 94.4036C113.052 89.1422 114.195 85.7418 115.351 83.2476L114.444 82.827ZM110.352 94.0878L109.403 93.7724L107.652 99.0424L108.601 99.3577L109.55 99.6731L111.301 94.4032L110.352 94.0878ZM108.601 99.3577L108.957 100.292C121.192 95.6291 131.943 87.7509 140.075 77.4883L139.291 76.8673L138.507 76.2462C130.599 86.2267 120.144 93.8884 108.245 98.4233L108.601 99.3577ZM95.1157 103L96.0643 103.317L100.366 90.4286L99.417 90.112L98.4684 89.7954L94.1672 102.684L95.1157 103ZM99.417 90.112L100.366 90.4269C101.984 85.5511 103.337 81.5113 104.804 78.3499L103.896 77.929L102.989 77.5081C101.465 80.7947 100.074 84.9544 98.4679 89.7971L99.417 90.112ZM103.896 77.929L104.805 78.3462C105.45 76.9414 106.186 75.6246 107.013 74.3948L106.183 73.837L105.353 73.2792C104.464 74.6017 103.676 76.0129 102.988 77.5118L103.896 77.929ZM106.183 73.837L106.939 73.1833L95.826 60.3183L95.0693 60.972L94.3125 61.6257L105.426 74.4907L106.183 73.837ZM95.0693 60.972L94.8245 60.0024C93.863 60.2452 92.8706 60.3672 91.8452 60.3672V61.3672V62.3672C93.0312 62.3672 94.1882 62.2258 95.314 61.9416L95.0693 60.972ZM91.8452 61.3672V60.3672H74.5628V61.3672V62.3672H91.8452V61.3672ZM74.5628 61.3672V60.3672C73.6017 60.3672 72.6742 60.264 71.7787 60.0592L71.5557 61.034L71.3328 62.0088C72.3799 62.2483 73.4572 62.3672 74.5628 62.3672V61.3672ZM71.5557 61.034L70.7684 60.4175L60.9026 73.0191L61.69 73.6355L62.4774 74.252L72.3431 61.6505L71.5557 61.034ZM61.69 73.6355L60.8679 74.2049C61.7518 75.481 62.531 76.862 63.2049 78.3494L64.1157 77.9367L65.0266 77.5241C64.3055 75.9322 63.4675 74.4457 62.5121 73.0661L61.69 73.6355ZM64.1157 77.9367L63.2095 78.3594C64.6833 81.5198 66.028 85.557 67.6543 90.436L68.603 90.1198L69.5517 89.8035C67.9385 84.964 66.5552 80.8017 65.022 77.5141L64.1157 77.9367ZM68.603 90.1198L67.6542 90.4356L72.033 103.587L72.9818 103.271L73.9305 102.956L69.5518 89.8038L68.603 90.1198ZM72.9818 103.271L72.8397 104.261C80.2995 105.332 87.88 105.242 95.3123 103.994L95.1468 103.008L94.9812 102.022C87.7524 103.235 80.3794 103.323 73.1238 102.282L72.9818 103.271ZM59.6517 100.024L60.6008 99.7091L58.6323 93.7804L57.6833 94.0955L56.7342 94.4106L58.7027 100.339L59.6517 100.024ZM57.6833 94.0955L58.6317 93.7784C56.8883 88.5638 55.7056 85.0265 54.4902 82.4131L53.5835 82.8347L52.6768 83.2564C53.8329 85.7425 54.9752 89.1492 56.7348 94.4126L57.6833 94.0955ZM53.5835 82.8347L54.4903 82.4133C53.326 79.9079 52.3272 78.6962 51.2165 77.8935L50.6307 78.704L50.045 79.5145C50.7788 80.0448 51.5935 80.9256 52.6766 83.2562L53.5835 82.8347ZM50.6307 78.704L51.2177 77.8944C50.0979 77.0826 48.6394 76.5202 45.9006 76.207L45.787 77.2005L45.6734 78.194C48.2201 78.4853 49.3036 78.9769 50.0438 79.5136L50.6307 78.704ZM45.787 77.2005L45.8974 76.2066C43.0397 75.8891 39.3176 75.875 33.821 75.875V76.875V77.875C39.3604 77.875 42.9543 77.8919 45.6766 78.1944L45.787 77.2005ZM33.821 76.875V75.875H27.125V76.875V77.875H33.821V76.875ZM27.125 76.875L26.3413 77.4962C34.8891 88.2796 46.3192 96.4183 59.3056 100.968L59.6362 100.024L59.9669 99.0805C47.3374 94.6559 36.2214 86.7408 27.9087 76.2538L27.125 76.875ZM19.7238 65.4593L19.9814 66.4255C20.4098 66.3113 20.8511 66.2523 21.2944 66.25L21.2892 65.25L21.2841 64.25C20.6702 64.2532 20.0593 64.3348 19.4661 64.493L19.7238 65.4593ZM21.2892 65.25V66.25H34.1232V65.25V64.25H21.2892V65.25ZM34.1232 65.25V66.25C39.2582 66.25 43.5106 66.2514 46.9757 66.6466L47.089 65.653L47.2023 64.6594C43.5994 64.2486 39.2183 64.25 34.1232 64.25V65.25ZM47.089 65.653L46.9749 66.6465C48.7526 66.8507 50.4272 67.1655 52.0197 67.6815L52.328 66.7302L52.6363 65.779C50.8808 65.21 49.0679 64.8738 47.2031 64.6595L47.089 65.653ZM52.328 66.7302L53.1147 67.3475L63.2207 54.467L62.434 53.8498L61.6473 53.2325L51.5413 66.113L52.328 66.7302ZM62.434 53.8498L63.3341 53.4142C63.0357 52.7974 62.7813 52.1602 62.5729 51.5074L61.6203 51.8115L60.6676 52.1156C60.9047 52.8584 61.1942 53.5835 61.5339 54.2854L62.434 53.8498ZM61.6203 51.8115L62.5758 51.5167L56.9881 33.4049L56.0325 33.6998L55.0769 33.9946L60.6647 52.1063L61.6203 51.8115ZM56.0325 33.6998L56.9912 33.4155C56.7607 32.638 56.5958 31.8425 56.4982 31.0375L55.5055 31.1577L54.5128 31.278C54.6238 32.1941 54.8114 33.0993 55.0738 33.984L56.0325 33.6998ZM55.5055 31.1577L55.894 30.2363L36.1315 21.905L35.743 22.8265L35.3545 23.748L55.117 32.0792L55.5055 31.1577ZM35.743 22.8265L34.98 22.18C33.9465 23.3999 32.8062 24.5252 31.5727 25.5425L32.209 26.314L32.8453 27.0854C34.1704 25.9925 35.3955 24.7835 36.506 23.473L35.743 22.8265ZM32.209 26.314L31.568 25.5465C28.8924 27.7812 25.3427 30.1264 21.0629 32.9588L21.6147 33.7927L22.1666 34.6267C26.4118 31.8171 30.0696 29.4038 32.85 27.0815L32.209 26.314ZM21.6147 33.7927L21.0633 32.9585L11.4843 39.2903L12.0357 40.1245L12.5872 40.9587L22.1662 34.627L21.6147 33.7927ZM12.0357 40.1245L11.0416 40.2324C12.0395 49.4257 14.7349 58.0943 18.8297 65.9301L19.716 65.467L20.6023 65.0039C16.6216 57.3862 14.0005 48.9583 13.0299 40.0166L12.0357 40.1245ZM83.204 16.8822L83.1934 15.8823C82.5551 15.8891 81.9364 16.1036 81.4309 16.4933L82.0415 17.2852L82.6521 18.0772C82.8134 17.9528 83.0109 17.8844 83.2146 17.8822L83.204 16.8822ZM82.0415 17.2852L81.4343 16.4907L67.2053 27.3639L67.8125 28.1585L68.4197 28.9531L82.6487 18.0798L82.0415 17.2852ZM67.8125 28.1585L67.2057 27.3637C66.727 27.7291 66.3723 28.2328 66.1894 28.8066L67.1422 29.1102L68.095 29.4138C68.1533 29.2307 68.2666 29.07 68.4193 28.9533L67.8125 28.1585ZM67.1422 29.1102L66.1894 28.8066C66.0066 29.3803 66.0045 29.9964 66.1834 30.5714L67.1383 30.2743L68.0931 29.9771C68.036 29.7936 68.0366 29.5969 68.095 29.4138L67.1422 29.1102ZM67.1383 30.2743L66.1828 30.5694L71.7783 48.6812L72.7337 48.386L73.6892 48.0908L68.0937 29.9791L67.1383 30.2743ZM72.7337 48.386L71.7786 48.682C71.9631 49.2776 72.3325 49.7991 72.8331 50.1709L73.4293 49.368L74.0255 48.5652C73.8657 48.4466 73.7478 48.2801 73.6889 48.09L72.7337 48.386ZM73.4293 49.368L72.8331 50.1709C73.3338 50.5427 73.9397 50.7455 74.5633 50.75L74.5705 49.75L74.5777 48.75C74.3787 48.7486 74.1853 48.6839 74.0255 48.5652L73.4293 49.368ZM74.5705 49.75V50.75H91.853V49.75V48.75H74.5705V49.75ZM91.853 49.75L91.8562 50.75C92.4818 50.748 93.0904 50.5463 93.5934 50.1744L92.9988 49.3703L92.4042 48.5663C92.2437 48.685 92.0495 48.7494 91.8498 48.75L91.853 49.75ZM92.9988 49.3703L93.5934 50.1744C94.0964 49.8024 94.4675 49.2796 94.6527 48.682L93.6975 48.386L92.7423 48.09C92.6832 48.2807 92.5648 48.4476 92.4042 48.5663L92.9988 49.3703ZM93.6975 48.386L94.6529 48.6812L100.248 30.5694L99.293 30.2743L98.3376 29.9791L92.7421 48.0908L93.6975 48.386ZM99.293 30.2743L100.248 30.5714C100.427 29.9964 100.425 29.3803 100.242 28.8066L99.289 29.1102L98.3363 29.4138C98.3946 29.597 98.3953 29.7936 98.3382 29.9771L99.293 30.2743ZM99.289 29.1102L100.242 28.8066C100.059 28.2328 99.7042 27.7291 99.2256 27.3637L98.6188 28.1585L98.0119 28.9533C98.1647 29.07 98.2779 29.2307 98.3363 29.4138L99.289 29.1102ZM98.6188 28.1585L99.2263 27.3642L84.9895 16.4754L84.382 17.2698L83.7745 18.0641L98.0112 28.9528L98.6188 28.1585ZM84.382 17.2698L84.982 16.4697C84.4735 16.0884 83.8551 15.8822 83.2195 15.8822V16.8822V17.8822C83.4223 17.8822 83.6197 17.948 83.782 18.0697L84.382 17.2698Z" fill="black" mask="url(#path-1-inside-1_1_140)"/>
</svg>
