<svg width="110" height="105" viewBox="0 0 110 105" fill="none" xmlns="http://www.w3.org/2000/svg">
<path d="M29.7354 -17.2617C62.1657 -49.7065 106.285 -47.9139 129.76 -43.9326C134.549 -43.1201 138.967 -40.8383 142.402 -37.4033C145.837 -33.9685 148.119 -29.5508 148.932 -24.7617C152.882 -1.47079 154.67 42.1446 123.015 74.501L122.261 75.2637C99.2542 98.2701 70.3707 104.062 47.1318 104.062C38.8007 104.046 30.4851 103.335 22.2725 101.935L22.2715 101.934C17.4759 101.128 13.0502 98.8493 9.6084 95.4141C6.16661 91.9786 3.87917 87.5569 3.06445 82.7627C-0.91679 59.2886 -2.695 15.1833 29.7354 -17.2617ZM11.5605 54.5791C11.3656 63.4259 12.0248 72.271 13.5293 80.9912C13.9746 83.6082 15.2225 86.0223 17.0996 87.8994C18.977 89.7767 21.3915 91.0246 24.0088 91.4697V91.4688C32.7283 92.9758 41.5734 93.6361 50.4199 93.4385L51.5889 93.4121L50.7617 92.585L12.4141 54.2363L11.5869 53.4092L11.5605 54.5791ZM86.4531 -34.0791C61.5519 -30.0336 45.7233 -18.2511 37.2383 -9.75879C28.7535 -1.26673 16.9713 14.5616 12.9258 39.4629L12.8848 39.7158L65.2832 92.1143L65.5361 92.0732C90.4372 88.0277 106.266 76.2455 114.758 67.7607V67.7598C123.243 59.2677 135.025 43.4392 139.07 18.5381L139.111 18.2861L138.931 18.1045L86.7061 -34.1201L86.4531 -34.0791ZM99.2412 0.455078C100.56 0.455192 101.828 0.945547 102.802 1.8252L102.993 2.00684C103.988 3.00294 104.547 4.35374 104.547 5.76172C104.547 7.08201 104.056 8.35183 103.174 9.32617L102.992 9.5166L92.5732 19.9277L92.2197 20.2822L97.1865 25.249L97.1934 25.2549C97.7183 25.7406 98.1399 26.3279 98.4326 26.9805C98.7253 27.633 98.8837 28.3377 98.8975 29.0527C98.9112 29.7678 98.7802 30.4783 98.5127 31.1416C98.2452 31.8049 97.8468 32.4076 97.3408 32.9131C96.8349 33.4185 96.2318 33.8161 95.5684 34.083C94.9049 34.3499 94.1944 34.4801 93.4795 34.4658C92.7645 34.4515 92.0595 34.2933 91.4072 34C90.7549 33.7067 90.1689 33.2842 89.6836 32.7588L84.7168 27.792L84.3633 28.1455L75.1436 37.3662L74.79 37.7197L79.7637 42.6934C80.289 43.1786 80.7116 43.7647 81.0049 44.417C81.2981 45.0692 81.4564 45.7743 81.4707 46.4893C81.485 47.2042 81.3548 47.9147 81.0879 48.5781C80.821 49.2417 80.4225 49.8446 79.917 50.3506C79.4116 50.8563 78.8095 51.255 78.1465 51.5225C77.4832 51.7899 76.7726 51.9209 76.0576 51.9072C75.3426 51.8935 74.6378 51.735 73.9854 51.4424C73.3329 51.1497 72.7455 50.729 72.2598 50.2041L72.2529 50.1963L67.2793 45.2227L56.498 56.0039C56.0097 56.5179 55.4232 56.929 54.7734 57.2129C54.1238 57.4967 53.4237 57.6481 52.7148 57.6572C52.0058 57.6663 51.3014 57.5328 50.6445 57.2656C49.9879 56.9985 49.3909 56.6029 48.8896 56.1016C48.3883 55.6002 47.9927 55.0034 47.7256 54.3467C47.4585 53.69 47.325 52.9862 47.334 52.2773C47.3431 51.5683 47.4944 50.8676 47.7783 50.2178C48.0622 49.5681 48.4733 48.9815 48.9873 48.4932L48.9961 48.4844L59.4229 38.0732L59.7764 37.7197L54.8301 32.7734C53.8986 31.7649 53.3934 30.4351 53.4209 29.0625C53.4485 27.69 54.0065 26.3814 54.9775 25.4111C55.9487 24.4408 57.2582 23.8837 58.6309 23.8574C59.9968 23.8313 61.3203 24.3322 62.3262 25.2559V25.2568L66.9326 29.8623L67.2871 30.2168L67.6406 29.8623L76.8535 20.6348L77.2061 20.2812L76.8525 19.9287L72.2598 15.3359C71.3274 14.3283 70.8213 12.9986 70.8477 11.626C70.874 10.2534 71.431 8.94385 72.4014 7.97266C73.3717 7.00165 74.6803 6.44356 76.0527 6.41602C77.4253 6.38848 78.7552 6.89379 79.7637 7.8252L84.3633 12.4248L84.7168 12.7793L85.0703 12.4248L95.4893 2.00684C96.4852 1.01346 97.8346 0.455078 99.2412 0.455078ZM104.161 -35.5078C103.28 -35.5033 102.419 -35.4861 101.552 -35.4365L100.438 -35.3721L101.227 -34.583L139.582 3.76465L140.409 4.5918L140.436 3.42188C140.618 -4.87201 140.05 -13.1642 138.738 -21.3535L138.467 -22.9902C138.023 -25.6073 136.777 -28.0221 134.901 -29.9004C133.025 -31.779 130.612 -33.0286 127.995 -33.4756H127.996C120.289 -34.8067 112.484 -35.489 104.663 -35.5166L104.161 -35.5186V-35.5078Z" stroke="black"/>
</svg>
