<svg width="169" height="70" viewBox="0 0 169 70" fill="none" xmlns="http://www.w3.org/2000/svg">
<path d="M84.9131 1.11523C106.714 0.9311 127.728 8.94721 143.571 23.459L144.322 24.1553C159.696 39.6334 168.2 60.3574 168.008 81.8652C167.815 103.379 158.938 123.962 143.281 139.18C127.624 154.398 106.44 163.032 84.293 163.219C62.4916 163.403 41.478 155.387 25.6348 140.875L24.8848 140.179C9.51056 124.701 1.00598 103.977 1.19824 82.4688C1.39058 60.9551 10.2693 40.3727 25.9258 25.1553C41.5828 9.93738 62.7657 1.30234 84.9131 1.11523ZM137.944 41.3496L42.6279 133.992L42.2051 134.404L42.6807 134.754C44.9893 136.449 47.385 138.029 49.8584 139.488L50.1904 139.684L50.4648 139.412L54.5322 135.381L59.8506 140.549L57.7441 142.668L57.2168 143.198L57.9082 143.483C70.4634 148.656 84.3211 150.065 97.7051 147.531C111.089 144.998 123.392 138.636 133.035 129.26C142.668 119.878 149.2 107.912 151.793 94.8955C154.386 81.8788 152.921 68.4063 147.586 56.2051L147.297 55.5439L146.779 56.0469L144.664 58.1025L139.354 52.9404L143.48 49.0059L143.775 48.7246L143.56 48.3789C142.058 45.9742 140.432 43.6456 138.688 41.4014L138.345 40.96L137.944 41.3496ZM83.8848 117.18L72.6104 128.215L67.3174 123.432L78.5801 112.098L83.8848 117.18ZM111.299 20.8516C98.7435 15.6792 84.8851 14.2691 71.501 16.8027C58.5353 19.2572 46.5848 25.3044 37.084 34.2041L36.1719 35.0742C26.5393 44.456 20.0061 56.4219 17.4131 69.4385C14.8201 82.4551 16.2853 95.9278 21.6201 108.129L21.9102 108.79L22.4268 108.287L24.542 106.23L29.8525 111.393L25.7266 115.328L25.4316 115.609L25.6475 115.955C27.1487 118.36 28.7744 120.689 30.5186 122.933L30.8613 123.374L31.2627 122.984L126.578 30.3418L127.002 29.9297L126.525 29.5801C124.217 27.885 121.821 26.3045 119.348 24.8457L119.016 24.6504L118.742 24.9219L114.673 28.9521L109.355 23.7842L111.463 21.666L111.99 21.1357L111.299 20.8516ZM107.925 93.8115L96.584 104.834L91.3496 99.6738L102.615 88.7236L107.925 93.8115ZM53.8154 88.0264L42.5518 98.9746L37.2383 93.8105L48.5791 82.8652L53.8154 88.0264ZM132.385 70.5166L120.633 81.4746L115.397 76.3125L127.073 65.3535L132.385 70.5166ZM77.8564 64.6592L66.5908 75.6094L61.2812 70.5215L72.6221 59.499L77.8564 64.6592ZM101.896 41.2939L90.6318 52.2422L85.3213 47.1533L96.583 36.1309L101.896 41.2939Z" fill="#3DC573" stroke="black"/>
</svg>
