<svg width="102" height="168" viewBox="0 0 102 168" fill="none" xmlns="http://www.w3.org/2000/svg">
<mask id="path-1-inside-1_1_323" fill="white">
<path fill-rule="evenodd" clip-rule="evenodd" d="M12.5837 78.0138L15.6426 75.99C20.2308 72.9544 23.2665 70.9384 25.4139 69.1386C27.4531 67.4316 28.2255 66.2884 28.6272 65.2224C29.0289 64.1565 29.2143 62.7893 28.8203 60.1553C28.4032 57.3746 27.4686 53.86 26.0473 48.538L24.7573 43.7104C17.7914 53.8918 13.5959 65.7113 12.5837 78.0061M33.8257 32.8964L34.0111 33.468L37.3248 45.8423C38.638 50.7703 39.758 54.9337 40.2755 58.4405C40.5459 60.2403 40.6849 61.9937 40.6 63.7471L59.9109 71.8807C60.3491 71.4412 60.8134 71.0285 61.3012 70.6448L75.4986 59.8C76.2608 59.2181 77.0641 58.7289 77.9086 58.3324V37.3997C76.2765 36.8205 74.7038 36.0859 73.2122 35.206C70.1379 33.4371 66.6697 30.8804 62.5758 27.8525L51.9316 20.0046C45.2635 23.3389 39.1551 27.6908 33.8257 32.9041M64.7772 15.092L69.1955 18.3516C73.6216 21.619 76.5569 23.7741 78.99 25.1722C81.2919 26.493 82.6205 26.8252 83.7637 26.8406C84.8992 26.8483 86.2355 26.5471 88.5682 25.2726C91.0246 23.9286 94.0062 21.8353 98.5018 18.6683L103.306 15.2851C96.9311 13.4636 90.3323 12.5432 83.7019 12.5507C77.3081 12.5426 70.9424 13.3974 64.7772 15.092ZM116.113 20.3291C115.882 20.55 115.637 20.7564 115.379 20.947L104.921 28.3159C100.75 31.2512 97.235 33.7384 94.1298 35.4377C92.6081 36.2719 91.0709 36.9825 89.4952 37.5001V58.3324C90.3345 58.734 91.1353 59.2258 91.8974 59.8077L106.087 70.6603C106.597 71.0465 107.071 71.4636 107.508 71.9116L127.283 63.7239C127.205 61.986 127.345 60.2403 127.615 58.4482C128.132 54.9414 129.252 50.7781 130.566 45.8577L133.879 33.4835L133.941 33.2595C128.698 28.0586 122.685 23.6972 116.113 20.3291ZM142.994 44.2356L141.843 48.538C140.422 53.86 139.487 57.3823 139.07 60.1553C138.684 62.7816 138.862 64.1565 139.263 65.2224C139.665 66.2884 140.437 67.4316 142.477 69.1386C144.624 70.9384 147.652 72.9544 152.248 75.99L154.781 77.6662C153.739 65.7059 149.684 54.2046 142.994 44.2356ZM166.592 87.1052C166.628 86.0753 166.646 85.0403 166.646 84.0001C166.646 38.1489 129.515 0.964355 83.7019 0.964355C37.881 0.964355 0.75 38.1489 0.75 84.0001C0.75 129.851 37.881 167.036 83.7019 167.036C127.151 167.036 162.784 133.59 166.353 91.0291C166.885 89.7881 166.974 88.4002 166.592 87.1052ZM154.666 91.4849L145.582 85.4677C141.333 82.6638 137.734 80.2924 135.023 78.0061C133.741 76.9502 132.557 75.7818 131.485 74.5147L111.301 82.8723C111.198 83.7194 111.025 84.5565 110.783 85.375L105.214 103.427C105.019 104.06 104.782 104.668 104.504 105.25L115.843 118.365C117.581 117.786 119.396 117.438 121.281 117.222C124.803 116.82 129.113 116.82 134.204 116.82H147.088C151.175 108.921 153.743 100.324 154.658 91.4772M139.588 128.407H134.52C129.013 128.407 125.375 128.415 122.594 128.731C119.96 129.04 118.686 129.558 117.766 130.23C116.839 130.894 115.936 131.929 114.816 134.347C113.634 136.896 112.475 140.349 110.737 145.57L108.991 150.823C121.019 146.239 131.586 138.495 139.58 128.407M95.551 154.453L99.8381 141.608C101.445 136.764 102.812 132.678 104.303 129.465C104.967 128.018 105.727 126.659 106.581 125.387L95.5047 112.564C94.4645 112.827 93.3934 112.958 92.2914 112.958H75.0661C74.0361 112.958 73.0371 112.848 72.069 112.626L62.2359 125.186C63.1525 126.509 63.9584 127.938 64.6536 129.473C66.1521 132.686 67.5116 136.772 69.126 141.615L73.4903 154.723C80.8237 155.775 88.2757 155.687 95.582 154.461M60.2044 151.487L58.2424 145.578C56.4967 140.356 55.338 136.896 54.1562 134.354C53.0362 131.945 52.1324 130.902 51.2132 130.237C50.2863 129.565 49.0195 129.04 46.3855 128.739C43.6047 128.43 39.9588 128.415 34.4591 128.415H27.7853C36.1876 139.014 47.4234 147.015 60.1889 151.487M20.4085 117.037C20.9176 116.901 21.4419 116.831 21.9688 116.828H34.7603C39.8584 116.828 44.1609 116.828 47.6832 117.23C49.4984 117.438 51.2364 117.763 52.9049 118.303L62.9774 105.466C62.6594 104.809 62.3884 104.13 62.1664 103.434L56.5971 85.3827C56.3515 84.5544 56.1758 83.7069 56.0719 82.8492L36.3747 74.5456C35.3063 75.8066 34.1275 76.9698 32.8524 78.0215C30.1335 80.2924 26.5416 82.6638 22.2932 85.4754L12.7459 91.7861C13.7269 100.824 16.3764 109.343 20.4008 117.044M83.6787 68.6211C83.2591 68.6255 82.8524 68.7665 82.5201 69.0228L68.3381 79.8599C68.0235 80.1001 67.7903 80.4312 67.6701 80.8084C67.5499 81.1856 67.5485 81.5906 67.6661 81.9686L73.2431 100.02C73.3644 100.412 73.6072 100.755 73.9364 100.999C74.2655 101.243 74.6638 101.377 75.0738 101.38H92.2991C92.7104 101.378 93.1105 101.246 93.4411 101.001C93.7718 100.757 94.0158 100.413 94.1375 100.02L99.7145 81.9686C99.8321 81.5906 99.8307 81.1856 99.7105 80.8084C99.5903 80.4312 99.3571 80.1001 99.0425 79.8599L84.8528 69.0073C84.5185 68.7566 84.112 68.6211 83.6942 68.6211"/>
</mask>
<path d="M15.6426 75.99L15.1395 75.2296L15.6426 75.99ZM25.4139 69.1386L24.8286 68.4395L24.8282 68.4398L25.4139 69.1386ZM28.6272 65.2224L27.774 64.9009L28.6272 65.2224ZM28.8203 60.1553L29.7221 60.0204L29.722 60.0201L28.8203 60.1553ZM26.0473 48.538L26.9282 48.3028L26.9281 48.3027L26.0473 48.538ZM24.7573 43.7104L25.6382 43.475L25.1257 41.5572L24.0048 43.1955L24.7573 43.7104ZM34.0111 33.468L34.8918 33.2322L34.8857 33.2093L34.8784 33.1867L34.0111 33.468ZM37.3248 45.8423L38.2059 45.6075L38.2056 45.6064L37.3248 45.8423ZM40.2755 58.4405L39.3735 58.5736L39.3739 58.576L40.2755 58.4405ZM40.6 63.7471L39.6893 63.703L39.6584 64.3398L40.246 64.5874L40.6 63.7471ZM59.9109 71.8807L59.5569 72.721L60.1229 72.9594L60.5565 72.5245L59.9109 71.8807ZM61.3012 70.6448L60.7477 69.9202L60.7376 69.9281L61.3012 70.6448ZM75.4986 59.8L74.9453 59.0753L74.9452 59.0754L75.4986 59.8ZM77.9086 58.3324L78.2961 59.1577L78.8204 58.9116V58.3324H77.9086ZM77.9086 37.3997H78.8204V36.7557L78.2135 36.5404L77.9086 37.3997ZM73.2122 35.206L73.6755 34.4206L73.6669 34.4157L73.2122 35.206ZM62.5758 27.8525L63.1179 27.1194L63.1168 27.1186L62.5758 27.8525ZM51.9316 20.0046L52.4727 19.2708L52.0232 18.9394L51.5238 19.1891L51.9316 20.0046ZM64.7772 15.092L64.5356 14.2129L62.7245 14.7107L64.2359 15.8257L64.7772 15.092ZM69.1955 18.3516L69.7371 17.6181L69.7368 17.6179L69.1955 18.3516ZM78.99 25.1722L78.5358 25.9627L78.5362 25.963L78.99 25.1722ZM83.7637 26.8406L83.7514 27.7523L83.7575 27.7523L83.7637 26.8406ZM88.5682 25.2726L89.0054 26.0727L89.0059 26.0724L88.5682 25.2726ZM98.5018 18.6683L97.9768 17.9229L97.9767 17.923L98.5018 18.6683ZM103.306 15.2851L103.831 16.0306L105.391 14.9324L103.557 14.4084L103.306 15.2851ZM83.7019 12.5507L83.7007 13.4625L83.7029 13.4625L83.7019 12.5507ZM116.113 20.3291L116.529 19.5177L115.953 19.2221L115.484 19.6695L116.113 20.3291ZM115.379 20.947L115.905 21.6923L115.914 21.686L115.922 21.6795L115.379 20.947ZM104.921 28.3159L105.445 29.0616L105.446 29.0613L104.921 28.3159ZM94.1298 35.4377L93.6921 34.6379L93.6915 34.6382L94.1298 35.4377ZM89.4952 37.5001L89.2107 36.6338L88.5834 36.8398V37.5001H89.4952ZM89.4952 58.3324H88.5834V58.9069L89.1016 59.1548L89.4952 58.3324ZM91.8974 59.8077L92.4513 59.0835L92.4507 59.083L91.8974 59.8077ZM106.087 70.6603L105.533 71.3845L105.537 71.3871L106.087 70.6603ZM107.508 71.9116L106.856 72.5488L107.287 72.99L107.857 72.754L107.508 71.9116ZM127.283 63.7239L127.632 64.5663L128.222 64.3218L128.194 63.6834L127.283 63.7239ZM127.615 58.4482L128.516 58.5843L128.517 58.5814L127.615 58.4482ZM130.566 45.8577L129.685 45.6219L129.685 45.6226L130.566 45.8577ZM133.879 33.4835L133 33.241L132.999 33.2476L133.879 33.4835ZM133.941 33.2595L134.82 33.5019L134.962 32.9878L134.583 32.6122L133.941 33.2595ZM142.994 44.2356L143.751 43.7276L142.632 42.0602L142.113 44L142.994 44.2356ZM141.843 48.538L140.962 48.3024L140.962 48.3028L141.843 48.538ZM139.07 60.1553L138.168 60.0197L138.168 60.0227L139.07 60.1553ZM139.263 65.2224L140.116 64.9009L139.263 65.2224ZM142.477 69.1386L143.062 68.4398L143.062 68.4395L142.477 69.1386ZM152.248 75.99L152.751 75.2296L152.75 75.2292L152.248 75.99ZM154.781 77.6662L154.278 78.4266L155.854 79.4688L155.69 77.5871L154.781 77.6662ZM166.592 87.1052L165.681 87.0733L165.676 87.2214L165.718 87.3635L166.592 87.1052ZM83.7019 0.964355V1.87612V0.964355ZM166.353 91.0291L165.515 90.6698L165.456 90.8057L165.444 90.953L166.353 91.0291ZM145.582 85.4677L146.085 84.7076L146.084 84.7067L145.582 85.4677ZM135.023 78.0061L135.61 77.309L135.602 77.3025L135.023 78.0061ZM131.485 74.5147L132.181 73.9256L131.751 73.4177L131.136 73.6723L131.485 74.5147ZM111.301 82.8723L110.952 82.0299L110.46 82.2336L110.396 82.7622L111.301 82.8723ZM110.783 85.375L111.655 85.6438L111.658 85.6329L110.783 85.375ZM105.214 103.427L106.085 103.696L106.085 103.695L105.214 103.427ZM104.504 105.25L103.681 104.856L103.424 105.395L103.814 105.846L104.504 105.25ZM115.843 118.365L115.153 118.962L115.552 119.423L116.131 119.23L115.843 118.365ZM121.281 117.222L121.178 116.316L121.177 116.316L121.281 117.222ZM147.088 116.82V117.732H147.643L147.898 117.239L147.088 116.82ZM122.594 128.731L122.491 127.825L122.488 127.826L122.594 128.731ZM117.766 130.23L118.297 130.971L118.304 130.966L117.766 130.23ZM114.816 134.347L115.643 134.73L115.643 134.73L114.816 134.347ZM110.737 145.57L109.872 145.282L109.872 145.283L110.737 145.57ZM108.991 150.823L108.126 150.535L107.52 152.359L109.316 151.675L108.991 150.823ZM99.8381 141.608L100.703 141.896L100.703 141.895L99.8381 141.608ZM104.303 129.465L105.13 129.849L105.131 129.845L104.303 129.465ZM106.581 125.387L107.338 125.895L107.727 125.317L107.271 124.791L106.581 125.387ZM95.5047 112.564L96.1947 111.968L95.8269 111.543L95.2815 111.68L95.5047 112.564ZM72.069 112.626L72.2723 111.737L71.708 111.608L71.3511 112.064L72.069 112.626ZM62.2359 125.186L61.518 124.624L61.1039 125.153L61.4864 125.705L62.2359 125.186ZM64.6536 129.473L63.8231 129.849L63.8273 129.858L64.6536 129.473ZM69.126 141.615L69.9911 141.327L69.991 141.327L69.126 141.615ZM73.4903 154.723L72.6252 155.011L72.8032 155.546L73.3608 155.626L73.4903 154.723ZM58.2424 145.578L59.1077 145.291L59.1071 145.289L58.2424 145.578ZM54.1562 134.354L53.3294 134.739L53.3295 134.739L54.1562 134.354ZM51.2132 130.237L50.6781 130.976L50.6792 130.976L51.2132 130.237ZM46.3855 128.739L46.4891 127.833L46.4862 127.833L46.3855 128.739ZM27.7853 128.415V127.503H25.899L27.0707 128.981L27.7853 128.415ZM21.9688 116.828V115.916L21.9641 115.916L21.9688 116.828ZM47.6832 117.23L47.7873 116.324L47.7865 116.324L47.6832 117.23ZM52.9049 118.303L52.6238 119.171L53.2293 119.367L53.6222 118.866L52.9049 118.303ZM62.9774 105.466L63.6948 106.029L64.046 105.581L63.7981 105.069L62.9774 105.466ZM62.1664 103.434L61.2951 103.703L61.2978 103.712L62.1664 103.434ZM56.5971 85.3827L55.7229 85.6419L55.7259 85.6515L56.5971 85.3827ZM56.0719 82.8492L56.977 82.7395L56.9134 82.2144L56.426 82.009L56.0719 82.8492ZM36.3747 74.5456L36.7289 73.7054L36.1119 73.4453L35.6791 73.9562L36.3747 74.5456ZM32.8524 78.0215L32.2723 77.3181L32.268 77.3217L32.8524 78.0215ZM22.2932 85.4754L22.796 86.236L22.7964 86.2357L22.2932 85.4754ZM12.7459 91.7861L12.2432 91.0255L11.7795 91.332L11.8395 91.8845L12.7459 91.7861ZM82.5201 69.0228L83.0737 69.7472L83.0768 69.7448L82.5201 69.0228ZM68.3381 79.8599L68.8914 80.5846L68.8917 80.5843L68.3381 79.8599ZM67.6661 81.9686L68.5373 81.6995L68.5367 81.6977L67.6661 81.9686ZM73.2431 100.02L72.372 100.289L72.3722 100.29L73.2431 100.02ZM75.0738 101.38L75.0672 102.291H75.0738V101.38ZM92.2991 101.38V102.291L92.302 102.291L92.2991 101.38ZM94.1375 100.02L95.0084 100.29L95.0086 100.289L94.1375 100.02ZM99.7145 81.9686L98.8439 81.6977L98.8433 81.6995L99.7145 81.9686ZM99.0425 79.8599L98.4886 80.5841L98.4892 80.5846L99.0425 79.8599ZM84.8528 69.0073L85.4067 68.283L85.3999 68.2779L84.8528 69.0073ZM12.5837 78.0138L13.0868 78.7742L16.1457 76.7504L15.6426 75.99L15.1395 75.2296L12.0806 77.2534L12.5837 78.0138ZM15.6426 75.99L16.1457 76.7504C20.7154 73.7271 23.8031 71.6783 25.9995 69.8374L25.4139 69.1386L24.8282 68.4398C22.7299 70.1985 19.7463 72.1817 15.1395 75.2296L15.6426 75.99ZM25.4139 69.1386L25.9991 69.8378C28.1057 68.0743 29.0033 66.81 29.4804 65.5439L28.6272 65.2224L27.774 64.9009C27.4478 65.7667 26.8005 66.7888 24.8286 68.4395L25.4139 69.1386ZM28.6272 65.2224L29.4804 65.5439C29.9559 64.2821 30.1294 62.7443 29.7221 60.0204L28.8203 60.1553L27.9186 60.2902C28.2991 62.8343 28.1019 64.0309 27.774 64.9009L28.6272 65.2224ZM28.8203 60.1553L29.722 60.0201C29.2955 57.1765 28.3436 53.603 26.9282 48.3028L26.0473 48.538L25.1664 48.7733C26.5935 54.1171 27.511 57.5727 27.9186 60.2906L28.8203 60.1553ZM26.0473 48.538L26.9281 48.3027L25.6382 43.475L24.7573 43.7104L23.8764 43.9457L25.1664 48.7734L26.0473 48.538ZM24.7573 43.7104L24.0048 43.1955C16.9495 53.5076 12.7002 65.4788 11.675 77.9312L12.5837 78.0061L13.4924 78.0809C14.4916 65.9439 18.6332 54.2761 25.5098 44.2252L24.7573 43.7104ZM33.8257 32.8964L32.9584 33.1777L33.1438 33.7493L34.0111 33.468L34.8784 33.1867L34.693 32.6151L33.8257 32.8964ZM34.0111 33.468L33.1304 33.7039L36.4441 46.0781L37.3248 45.8423L38.2056 45.6064L34.8918 33.2322L34.0111 33.468ZM37.3248 45.8423L36.4438 46.077C37.7623 51.025 38.8654 55.1302 39.3735 58.5736L40.2755 58.4405L41.1775 58.3074C40.6507 54.7372 39.5137 50.5156 38.2059 45.6075L37.3248 45.8423ZM40.2755 58.4405L39.3739 58.576C39.6383 60.3361 39.7705 62.0267 39.6893 63.703L40.6 63.7471L41.5107 63.7912C41.5994 61.9607 41.4535 60.1445 41.1772 58.3051L40.2755 58.4405ZM40.6 63.7471L40.246 64.5874L59.5569 72.721L59.9109 71.8807L60.2648 71.0405L40.9539 62.9068L40.6 63.7471ZM59.9109 71.8807L60.5565 72.5245C60.9689 72.1109 61.4058 71.7226 61.8649 71.3615L61.3012 70.6448L60.7376 69.9281C60.221 70.3344 59.7293 70.7715 59.2652 71.237L59.9109 71.8807ZM61.3012 70.6448L61.8547 71.3694L76.0521 60.5246L75.4986 59.8L74.9452 59.0754L60.7478 69.9203L61.3012 70.6448ZM75.4986 59.8L76.0519 60.5247C76.764 59.981 77.5119 59.5259 78.2961 59.1577L77.9086 58.3324L77.5211 57.5071C76.6163 57.9319 75.7576 58.4552 74.9453 59.0753L75.4986 59.8ZM77.9086 58.3324H78.8204V37.3997H77.9086H76.9969V58.3324H77.9086ZM77.9086 37.3997L78.2135 36.5404C76.6364 35.9808 75.1168 35.271 73.6755 34.4207L73.2122 35.206L72.7489 35.9913C74.2908 36.9009 75.9166 37.6603 77.6037 38.2589L77.9086 37.3997ZM73.2122 35.206L73.6669 34.4157C70.6477 32.6785 67.2254 30.1574 63.1179 27.1194L62.5758 27.8525L62.0336 28.5855C66.1139 31.6034 69.6282 34.1957 72.7575 35.9963L73.2122 35.206ZM62.5758 27.8525L63.1168 27.1186L52.4727 19.2708L51.9316 20.0046L51.3905 20.7385L62.0347 28.5863L62.5758 27.8525ZM51.9316 20.0046L51.5238 19.1891C44.7711 22.5657 38.5851 26.9729 33.1881 32.2524L33.8257 32.9041L34.4633 33.5559C39.725 28.4088 45.7559 24.1121 52.3394 20.8201L51.9316 20.0046ZM64.7772 15.092L64.2359 15.8257L68.6543 19.0854L69.1955 18.3516L69.7368 17.6179L65.3185 14.3583L64.7772 15.092ZM69.1955 18.3516L68.654 19.0852C73.0627 22.3397 76.0466 24.5325 78.5358 25.9627L78.99 25.1722L79.4443 24.3816C77.0671 23.0157 74.1805 20.8983 69.7371 17.6181L69.1955 18.3516ZM78.99 25.1722L78.5362 25.963C80.9134 27.3271 82.3968 27.734 83.7514 27.7523L83.7637 26.8406L83.776 25.9289C82.8441 25.9163 81.6703 25.659 79.4438 24.3813L78.99 25.1722ZM83.7637 26.8406L83.7575 27.7523C85.1034 27.7615 86.5956 27.3893 89.0054 26.0727L88.5682 25.2726L88.1311 24.4724C85.8753 25.7049 84.6949 25.9352 83.7699 25.9289L83.7637 26.8406ZM88.5682 25.2726L89.0059 26.0724C91.5184 24.6977 94.5496 22.5678 99.0268 19.4137L98.5018 18.6683L97.9767 17.923C93.4628 21.1028 90.5308 23.1594 88.1306 24.4727L88.5682 25.2726ZM98.5018 18.6683L99.0267 19.4138L103.831 16.0306L103.306 15.2851L102.781 14.5396L97.9768 17.9229L98.5018 18.6683ZM103.306 15.2851L103.557 14.4084C97.0998 12.5635 90.4163 11.6313 83.7009 11.639L83.7019 12.5507L83.7029 13.4625C90.2482 13.455 96.7624 14.3636 103.056 16.1618L103.306 15.2851ZM83.7019 12.5507L83.703 11.639C77.2272 11.6308 70.7798 12.4965 64.5356 14.2129L64.7772 15.092L65.0189 15.9712C71.1049 14.2983 77.3889 13.4545 83.7007 13.4625L83.7019 12.5507ZM116.113 20.3291L115.484 19.6695C115.28 19.8644 115.063 20.0464 114.837 20.2145L115.379 20.947L115.922 21.6795C116.21 21.4665 116.484 21.2357 116.743 20.9887L116.113 20.3291ZM115.379 20.947L114.854 20.2017L104.396 27.5706L104.921 28.3159L105.446 29.0613L115.905 21.6923L115.379 20.947ZM104.921 28.3159L104.396 27.5703C100.208 30.5174 96.7417 32.9689 93.6921 34.6379L94.1298 35.4377L94.5675 36.2375C97.7282 34.5078 101.291 31.9849 105.445 29.0616L104.921 28.3159ZM94.1298 35.4377L93.6915 34.6382C92.2041 35.4536 90.7193 36.1383 89.2107 36.6338L89.4952 37.5001L89.7797 38.3663C91.4225 37.8268 93.012 37.0903 94.5681 36.2372L94.1298 35.4377ZM89.4952 37.5001H88.5834V58.3324H89.4952H90.4069V37.5001H89.4952ZM89.4952 58.3324L89.1016 59.1548C89.8828 59.5287 90.6302 59.9873 91.3441 60.5324L91.8974 59.8077L92.4507 59.083C91.6404 58.4643 90.7863 57.9394 89.8887 57.5099L89.4952 58.3324ZM91.8974 59.8077L91.3435 60.5319L105.533 71.3845L106.087 70.6603L106.641 69.9361L92.4513 59.0835L91.8974 59.8077ZM106.087 70.6603L105.537 71.3871C106.011 71.7465 106.451 72.1338 106.856 72.5488L107.508 71.9116L108.161 71.2744C107.691 70.7934 107.183 70.3465 106.638 69.9335L106.087 70.6603ZM107.508 71.9116L107.857 72.754L127.632 64.5663L127.283 63.7239L126.934 62.8815L107.16 71.0692L107.508 71.9116ZM127.283 63.7239L128.194 63.6834C128.12 62.0207 128.252 60.3365 128.516 58.5843L127.615 58.4482L126.713 58.3122C126.437 60.1441 126.291 61.9512 126.372 63.7644L127.283 63.7239ZM127.615 58.4482L128.517 58.5814C129.025 55.138 130.128 51.0328 131.447 46.0928L130.566 45.8577L129.685 45.6226C128.377 50.5233 127.24 54.7448 126.713 58.3151L127.615 58.4482ZM130.566 45.8577L131.446 46.0936L134.76 33.7193L133.879 33.4835L132.999 33.2476L129.685 45.6219L130.566 45.8577ZM133.879 33.4835L134.758 33.7259L134.82 33.5019L133.941 33.2595L133.062 33.017L133 33.241L133.879 33.4835ZM133.941 33.2595L134.583 32.6122C129.274 27.3453 123.184 22.9286 116.529 19.5177L116.113 20.3291L115.697 21.1405C122.186 24.4659 128.123 28.7719 133.299 33.9067L133.941 33.2595ZM142.994 44.2356L142.113 44L140.962 48.3024L141.843 48.538L142.724 48.7737L143.875 44.4712L142.994 44.2356ZM141.843 48.538L140.962 48.3028C139.547 53.6035 138.595 57.1842 138.168 60.0197L139.07 60.1553L139.972 60.2909C140.379 57.5805 141.297 54.1166 142.724 48.7733L141.843 48.538ZM139.07 60.1553L138.168 60.0227C137.769 62.7344 137.934 64.2804 138.41 65.5439L139.263 65.2224L140.116 64.9009C139.789 64.0325 139.598 62.8288 139.972 60.288L139.07 60.1553ZM139.263 65.2224L138.41 65.5439C138.887 66.81 139.785 68.0743 141.891 69.8378L142.477 69.1386L143.062 68.4395C141.09 66.7888 140.443 65.7667 140.116 64.9009L139.263 65.2224ZM142.477 69.1386L141.891 69.8374C144.087 71.6783 147.167 73.7265 151.745 76.7508L152.248 75.99L152.75 75.2292C148.137 72.1822 145.161 70.1985 143.062 68.4398L142.477 69.1386ZM152.248 75.99L151.745 76.7504L154.278 78.4266L154.781 77.6662L155.285 76.9058L152.751 75.2296L152.248 75.99ZM154.781 77.6662L155.69 77.5871C154.634 65.4733 150.527 53.8244 143.751 43.7276L142.994 44.2356L142.237 44.7437C148.841 54.5847 152.844 65.9385 153.873 77.7453L154.781 77.6662ZM166.592 87.1052L167.503 87.1371C167.54 86.0965 167.558 85.0508 167.558 84.0001H166.646H165.734C165.734 85.0297 165.716 86.0542 165.681 87.0733L166.592 87.1052ZM166.646 84.0001H167.558C167.558 37.6464 130.02 0.0525908 83.7019 0.0525908V0.964355V1.87612C129.01 1.87612 165.734 38.6514 165.734 84.0001H166.646ZM83.7019 0.964355V0.0525908C37.3765 0.0525908 -0.161765 37.6463 -0.161765 84.0001H0.75H1.66176C1.66176 38.6515 38.3855 1.87612 83.7019 1.87612V0.964355ZM0.75 84.0001H-0.161765C-0.161765 130.354 37.3765 167.948 83.7019 167.948V167.036V166.124C38.3855 166.124 1.66176 129.349 1.66176 84.0001H0.75ZM83.7019 167.036V167.948C127.63 167.948 163.653 134.133 167.261 91.1053L166.353 91.0291L165.444 90.953C161.914 133.046 126.672 166.124 83.7019 166.124V167.036ZM166.353 91.0291L167.19 91.3885C167.805 89.9556 167.91 88.3494 167.466 86.847L166.592 87.1052L165.718 87.3635C166.039 88.4511 165.964 89.6207 165.515 90.6698L166.353 91.0291ZM154.666 91.4849L155.169 90.7248L146.085 84.7076L145.582 85.4677L145.078 86.2278L154.162 92.245L154.666 91.4849ZM145.582 85.4677L146.084 84.7067C141.819 81.892 138.271 79.5532 135.61 77.309L135.023 78.0061L134.435 78.7031C137.196 81.0317 140.847 83.4356 145.079 86.2287L145.582 85.4677ZM135.023 78.0061L135.602 77.3025C134.363 76.2812 133.218 75.1511 132.181 73.9256L131.485 74.5147L130.789 75.1038C131.897 76.4124 133.12 77.6192 134.443 78.7097L135.023 78.0061ZM131.485 74.5147L131.136 73.6723L110.952 82.0299L111.301 82.8723L111.65 83.7147L131.834 75.3571L131.485 74.5147ZM111.301 82.8723L110.396 82.7622C110.299 83.5593 110.136 84.3469 109.909 85.1171L110.783 85.375L111.658 85.6329C111.914 84.7661 112.097 83.8796 112.206 82.9825L111.301 82.8723ZM110.783 85.375L109.912 85.1062L104.343 103.158L105.214 103.427L106.085 103.695L111.655 85.6438L110.783 85.375ZM105.214 103.427L104.343 103.157C104.16 103.75 103.939 104.316 103.681 104.856L104.504 105.25L105.326 105.643C105.624 105.02 105.877 104.37 106.085 103.696L105.214 103.427ZM104.504 105.25L103.814 105.846L115.153 118.962L115.843 118.365L116.533 117.769L105.193 104.653L104.504 105.25ZM115.843 118.365L116.131 119.23C117.793 118.676 119.543 118.339 121.385 118.128L121.281 117.222L121.177 116.316C119.249 116.537 117.369 116.896 115.555 117.5L115.843 118.365ZM121.281 117.222L121.384 118.128C124.844 117.733 129.095 117.732 134.204 117.732V116.82V115.909C129.132 115.909 124.763 115.907 121.178 116.316L121.281 117.222ZM134.204 116.82V117.732H147.088V116.82V115.909H134.204V116.82ZM147.088 116.82L147.898 117.239C152.037 109.238 154.638 100.532 155.565 91.571L154.658 91.4772L153.751 91.3834C152.848 100.117 150.313 108.603 146.278 116.401L147.088 116.82ZM139.588 128.407V127.495H134.52V128.407V129.319H139.588V128.407ZM134.52 128.407V127.495C129.035 127.495 125.335 127.501 122.491 127.825L122.594 128.731L122.697 129.637C125.414 129.328 128.991 129.319 134.52 129.319V128.407ZM122.594 128.731L122.488 127.826C119.773 128.144 118.324 128.692 117.228 129.494L117.766 130.23L118.304 130.966C119.047 130.423 120.147 129.936 122.7 129.637L122.594 128.731ZM117.766 130.23L117.235 129.489C116.135 130.277 115.146 131.464 113.988 133.964L114.816 134.347L115.643 134.73C116.725 132.394 117.544 131.511 118.297 130.971L117.766 130.23ZM114.816 134.347L113.988 133.963C112.78 136.57 111.603 140.081 109.872 145.282L110.737 145.57L111.602 145.858C113.347 140.616 114.488 137.221 115.643 134.73L114.816 134.347ZM110.737 145.57L109.872 145.283L108.126 150.535L108.991 150.823L109.857 151.11L111.602 145.858L110.737 145.57ZM108.991 150.823L109.316 151.675C121.497 147.032 132.199 139.19 140.295 128.973L139.58 128.407L138.865 127.841C130.974 137.8 120.541 145.445 108.667 149.971L108.991 150.823ZM95.551 154.453L96.4159 154.742L100.703 141.896L99.8381 141.608L98.9732 141.319L94.6862 154.164L95.551 154.453ZM99.8381 141.608L100.703 141.895C102.315 137.036 103.666 133.005 105.13 129.849L104.303 129.465L103.476 129.081C101.958 132.352 100.574 136.492 98.9727 141.32L99.8381 141.608ZM104.303 129.465L105.131 129.845C105.776 128.441 106.512 127.125 107.338 125.895L106.581 125.387L105.825 124.878C104.941 126.192 104.158 127.595 103.474 129.085L104.303 129.465ZM106.581 125.387L107.271 124.791L96.1947 111.968L95.5047 112.564L94.8147 113.16L105.891 125.983L106.581 125.387ZM95.5047 112.564L95.2815 111.68C94.3162 111.924 93.3202 112.047 92.2914 112.047V112.958V113.87C93.4666 113.87 94.6128 113.73 95.7279 113.448L95.5047 112.564ZM92.2914 112.958V112.047H75.0661V112.958V113.87H92.2914V112.958ZM75.0661 112.958V112.047C74.102 112.047 73.1713 111.943 72.2723 111.737L72.069 112.626L71.8657 113.515C72.9029 113.752 73.9703 113.87 75.0661 113.87V112.958ZM72.069 112.626L71.3511 112.064L61.518 124.624L62.2359 125.186L62.9538 125.748L72.7869 113.188L72.069 112.626ZM62.2359 125.186L61.4864 125.705C62.3703 126.981 63.1495 128.362 63.8231 129.849L64.6536 129.473L65.4841 129.096C64.7673 127.514 63.9347 126.037 62.9854 124.667L62.2359 125.186ZM64.6536 129.473L63.8273 129.858C65.2988 133.013 66.6407 137.043 68.261 141.904L69.126 141.615L69.991 141.327C68.3826 136.502 67.0055 132.359 65.4799 129.087L64.6536 129.473ZM69.126 141.615L68.2609 141.903L72.6252 155.011L73.4903 154.723L74.3554 154.435L69.9911 141.327L69.126 141.615ZM73.4903 154.723L73.3608 155.626C80.7872 156.691 88.3338 156.602 95.7329 155.36L95.582 154.461L95.4311 153.562C88.2175 154.772 80.8601 154.86 73.6198 153.821L73.4903 154.723ZM60.2044 151.487L61.0697 151.2L59.1077 145.291L58.2424 145.578L57.3771 145.865L59.3391 151.774L60.2044 151.487ZM58.2424 145.578L59.1071 145.289C57.3688 140.089 56.1918 136.569 54.9829 133.97L54.1562 134.354L53.3295 134.739C54.4843 137.222 55.6246 140.623 57.3777 145.867L58.2424 145.578ZM54.1562 134.354L54.983 133.97C53.826 131.481 52.8383 130.287 51.7473 129.498L51.2132 130.237L50.6792 130.976C51.4266 131.517 52.2464 132.409 53.3294 134.739L54.1562 134.354ZM51.2132 130.237L51.7484 129.499C50.6485 128.702 49.2107 128.144 46.4891 127.833L46.3855 128.739L46.2819 129.645C48.8284 129.936 49.9242 130.429 50.6781 130.976L51.2132 130.237ZM46.3855 128.739L46.4862 127.833C43.6437 127.517 39.9394 127.503 34.4591 127.503V128.415V129.326C39.9783 129.326 43.5658 129.343 46.2848 129.645L46.3855 128.739ZM34.4591 128.415V127.503H27.7853V128.415V129.326H34.4591V128.415ZM27.7853 128.415L27.0707 128.981C35.5802 139.716 46.9592 147.818 59.8875 152.347L60.1889 151.487L60.4904 150.626C47.8876 146.211 36.795 138.313 28.4998 127.848L27.7853 128.415ZM20.4085 117.037L20.6434 117.918C21.0774 117.802 21.5244 117.742 21.9735 117.74L21.9688 116.828L21.9641 115.916C21.3595 115.92 20.7578 116 20.1736 116.156L20.4085 117.037ZM21.9688 116.828V117.74H34.7603V116.828V115.916H21.9688V116.828ZM34.7603 116.828V117.74C39.8766 117.74 44.1204 117.741 47.5799 118.136L47.6832 117.23L47.7865 116.324C44.2013 115.915 39.8402 115.916 34.7603 115.916V116.828ZM47.6832 117.23L47.5791 118.136C49.3547 118.34 51.0297 118.654 52.6238 119.171L52.9049 118.303L53.186 117.436C51.4432 116.871 49.6422 116.537 47.7873 116.324L47.6832 117.23ZM52.9049 118.303L53.6222 118.866L63.6948 106.029L62.9774 105.466L62.2601 104.903L52.1875 117.741L52.9049 118.303ZM62.9774 105.466L63.7981 105.069C63.4989 104.45 63.2439 103.811 63.035 103.157L62.1664 103.434L61.2978 103.712C61.5329 104.448 61.8199 105.167 62.1567 105.863L62.9774 105.466ZM62.1664 103.434L63.0376 103.166L57.4684 85.1139L56.5971 85.3827L55.7259 85.6515L61.2951 103.703L62.1664 103.434ZM56.5971 85.3827L57.4713 85.1235C57.2401 84.3441 57.0748 83.5466 56.977 82.7395L56.0719 82.8492L55.1667 82.9588C55.2768 83.8672 55.4628 84.7647 55.723 85.6419L56.5971 85.3827ZM56.0719 82.8492L56.426 82.009L36.7289 73.7054L36.3747 74.5456L36.0206 75.3857L55.7177 83.6893L56.0719 82.8492ZM36.3747 74.5456L35.6791 73.9562C34.6457 75.1758 33.5056 76.3009 32.2723 77.3181L32.8524 78.0215L33.4326 78.7249C34.7495 77.6387 35.9669 76.4374 37.0704 75.135L36.3747 74.5456ZM32.8524 78.0215L32.268 77.3217C29.5968 79.5527 26.0542 81.893 21.79 84.7151L22.2932 85.4754L22.7964 86.2357C27.029 83.4346 30.6702 81.0321 33.4369 78.7213L32.8524 78.0215ZM22.2932 85.4754L21.7905 84.7148L12.2432 91.0255L12.7459 91.7861L13.2487 92.5467L22.796 86.236L22.2932 85.4754ZM12.7459 91.7861L11.8395 91.8845C12.8329 101.037 15.5163 109.666 19.5927 117.467L20.4008 117.044L21.2088 116.622C17.2365 109.021 14.6209 100.61 13.6524 91.6877L12.7459 91.7861ZM83.6787 68.6211L83.6691 67.7094C83.0513 67.7159 82.4526 67.9235 81.9633 68.3007L82.5201 69.0228L83.0768 69.7448C83.2522 69.6096 83.4669 69.5351 83.6884 69.5328L83.6787 68.6211ZM82.5201 69.0228L81.9665 68.2983L67.7845 79.1354L68.3381 79.8599L68.8917 80.5843L83.0737 69.7472L82.5201 69.0228ZM68.3381 79.8599L67.7849 79.1352C67.3216 79.4888 66.9783 79.9763 66.8013 80.5316L67.6701 80.8084L68.5388 81.0853C68.6022 80.8862 68.7253 80.7114 68.8914 80.5846L68.3381 79.8599ZM67.6701 80.8084L66.8013 80.5316C66.6244 81.0868 66.6224 81.6831 66.7955 82.2395L67.6661 81.9686L68.5367 81.6977C68.4746 81.4981 68.4753 81.2843 68.5388 81.0853L67.6701 80.8084ZM67.6661 81.9686L66.795 82.2377L72.372 100.289L73.2431 100.02L74.1142 99.751L68.5373 81.6995L67.6661 81.9686ZM73.2431 100.02L72.3722 100.29C72.5508 100.867 72.9083 101.371 73.3928 101.731L73.9364 100.999L74.4799 100.267C74.3062 100.138 74.1781 99.957 74.114 99.7503L73.2431 100.02ZM73.9364 100.999L73.3928 101.731C73.8773 102.091 74.4637 102.287 75.0672 102.291L75.0738 101.38L75.0803 100.468C74.8639 100.466 74.6537 100.396 74.4799 100.267L73.9364 100.999ZM75.0738 101.38V102.291H92.2991V101.38V100.468H75.0738V101.38ZM92.2991 101.38L92.302 102.291C92.9074 102.289 93.4965 102.094 93.9832 101.734L93.4411 101.001L92.899 100.268C92.7245 100.397 92.5133 100.467 92.2962 100.468L92.2991 101.38ZM93.4411 101.001L93.9832 101.734C94.47 101.374 94.8292 100.868 95.0084 100.29L94.1375 100.02L93.2666 99.7503C93.2023 99.9576 93.0736 100.139 92.899 100.268L93.4411 101.001ZM94.1375 100.02L95.0086 100.289L100.586 82.2377L99.7145 81.9686L98.8433 81.6995L93.2664 99.751L94.1375 100.02ZM99.7145 81.9686L100.585 82.2395C100.758 81.6831 100.756 81.0868 100.579 80.5316L99.7105 80.8084L98.8418 81.0853C98.9053 81.2844 98.906 81.4981 98.8439 81.6977L99.7145 81.9686ZM99.7105 80.8084L100.579 80.5316C100.402 79.9763 100.059 79.4888 99.5957 79.1352L99.0425 79.8599L98.4892 80.5846C98.6553 80.7114 98.7784 80.8862 98.8418 81.0853L99.7105 80.8084ZM99.0425 79.8599L99.5964 79.1357L85.4067 68.2831L84.8528 69.0073L84.2989 69.7315L98.4886 80.5841L99.0425 79.8599ZM84.8528 69.0073L85.3999 68.2779C84.9078 67.9088 84.3093 67.7093 83.6942 67.7093V68.6211V69.5329C83.9147 69.5329 84.1293 69.6044 84.3058 69.7367L84.8528 69.0073Z" fill="black" mask="url(#path-1-inside-1_1_323)"/>
</svg>
