<svg width="143" height="117" viewBox="0 0 143 117" fill="none" xmlns="http://www.w3.org/2000/svg">
<path d="M132.013 22.4927C93.3763 -6.14757 45.3534 -0.52304 20.1063 5.40862C14.9374 6.62328 10.3288 9.23524 6.9154 12.8739C3.50273 16.5119 1.45446 20.9941 1.04294 25.6969C-0.977912 48.8072 1.43497 91.7495 40.0516 120.356C67.4574 140.662 99.5864 143.744 124.976 141.698C134.075 140.949 143.087 139.526 151.919 137.443L151.92 137.443C157.097 136.234 161.715 133.624 165.136 129.984C168.556 126.345 170.609 121.859 171.023 117.151C173.044 94.0412 170.624 51.1136 132.013 22.4927ZM158.863 90.573C159.952 99.1431 160.108 107.786 159.328 116.383L159.328 116.384C159.1 118.978 157.971 121.435 156.111 123.418C154.251 125.401 151.75 126.814 148.959 127.471L148.959 127.472C139.595 129.7 130.01 131.117 120.339 131.704L119.066 131.781L119.929 130.861L157.996 90.2805L158.726 89.5027L158.863 90.573ZM68.3565 11.1315C95.9158 12.8639 114.349 22.8934 124.451 30.3848C134.55 37.8738 148.987 52.1976 155.874 76.0175L155.951 76.2884L155.762 76.4908L104.107 131.556L103.949 131.724L103.716 131.709C76.157 129.977 57.7236 119.948 47.6148 112.464L47.6147 112.463C37.5162 104.974 23.0785 90.6506 16.192 66.8307L16.1143 66.5598L16.3037 66.3574L67.9658 11.2845L68.1234 11.117L68.3565 11.1315ZM57.8342 45.7864C56.269 45.9126 54.8336 46.5848 53.8397 47.6413L53.8398 47.6422C52.8483 48.6999 52.3818 50.0502 52.5189 51.3934C52.656 52.7365 53.3883 53.9894 54.5775 54.8713L66.9826 64.0563L67.438 64.3938L67.0584 64.7996L62.4859 69.6738L62.4788 69.6813L62.4725 69.6877C61.9448 70.2078 61.544 70.8139 61.291 71.4676C61.0381 72.1211 60.9375 72.8103 60.9924 73.4948C61.0474 74.1792 61.257 74.8485 61.6113 75.4627C61.9658 76.0771 62.4586 76.6258 63.0633 77.0735C63.6682 77.5213 64.3722 77.859 65.1339 78.0624C65.8957 78.266 66.6978 78.3307 67.491 78.2525C68.2842 78.1743 69.0499 77.9544 69.7424 77.6077C70.4348 77.2611 71.0385 76.7953 71.5177 76.2413L71.5238 76.2339L71.53 76.2275L76.0955 71.3607L76.3973 71.0386L76.7584 71.3072L87.7371 79.4407L88.1927 79.7791L87.813 80.1839L83.2404 85.0582L83.2333 85.0656L83.2261 85.072C82.6979 85.5917 82.2971 86.1977 82.0435 86.8511C81.7899 87.5045 81.6887 88.1939 81.743 88.8785C81.7973 89.5629 82.0063 90.2321 82.3599 90.8465C82.7138 91.4612 83.2059 92.0103 83.8101 92.4585C84.4145 92.9067 85.1184 93.2443 85.8798 93.4484C86.6412 93.6525 87.443 93.7191 88.2363 93.6415C89.0295 93.5639 89.7959 93.3447 90.4887 92.9986C91.1816 92.6525 91.7854 92.1867 92.2651 91.633L92.2712 91.6256L92.2774 91.6193L96.858 86.7365L97.1589 86.4154L97.5209 86.6831L109.926 95.875L109.936 95.883C110.522 96.3403 111.209 96.6918 111.957 96.9131C112.705 97.1343 113.497 97.2208 114.285 97.1662C115.074 97.1117 115.842 96.917 116.542 96.5955C117.243 96.2739 117.861 95.8327 118.361 95.2999C118.861 94.7673 119.232 94.1543 119.456 93.4995C119.681 92.8448 119.755 92.1592 119.676 91.4825C119.597 90.8058 119.367 90.1474 118.996 89.547C118.625 88.9464 118.119 88.414 117.507 87.9833L117.496 87.9763L105.083 78.7919L104.628 78.4544L105.007 78.0487L109.572 73.1829C110.487 72.1213 110.896 70.7999 110.733 69.4954C110.57 68.1883 109.842 66.9749 108.682 66.1159C107.52 65.2556 106.016 64.8212 104.486 64.9183C102.958 65.0153 101.541 65.6335 100.527 66.6302L95.9623 71.496L95.6614 71.8171L95.2994 71.5495L84.3286 63.4076L83.873 63.0691L84.2528 62.6644L88.8174 57.7985C89.734 56.7376 90.1445 55.4164 89.9829 54.1118C89.8211 52.8046 89.0945 51.5909 87.9352 50.731C86.7739 49.8698 85.2709 49.4335 83.7407 49.5293C82.2155 49.6248 80.7993 50.2402 79.7848 51.2332L75.2077 56.1117L74.9068 56.4328L74.5448 56.1652L62.14 46.9732C60.9483 46.0925 59.3998 45.6602 57.8342 45.7864ZM48.8531 11.3067C49.8306 11.232 50.7845 11.1724 51.7494 11.1438L52.9704 11.1071L52.1445 11.9867L14.0702 52.5677L13.3399 53.3455L13.2032 52.2752C12.1139 43.7047 11.959 35.0611 12.7382 26.4644L12.7373 26.4645C12.9633 23.8704 14.0908 21.413 15.9498 19.4283C17.8082 17.4444 20.3077 16.0289 23.0994 15.3699L23.0984 15.37C31.3749 13.4017 39.8223 12.0528 48.3519 11.3383L48.8522 11.297L48.8531 11.3067Z" stroke="black"/>
</svg>
